<?xml version="1.0" encoding="UTF-8" standalone="no"?>
<!-- Creator: CorelDRAW -->
<svg
   xmlns:dc="http://purl.org/dc/elements/1.1/"
   xmlns:cc="http://creativecommons.org/ns#"
   xmlns:rdf="http://www.w3.org/1999/02/22-rdf-syntax-ns#"
   xmlns:svg="http://www.w3.org/2000/svg"
   xmlns="http://www.w3.org/2000/svg"
   xmlns:xlink="http://www.w3.org/1999/xlink"
   xmlns:sodipodi="http://sodipodi.sourceforge.net/DTD/sodipodi-0.dtd"
   xmlns:inkscape="http://www.inkscape.org/namespaces/inkscape"
   xml:space="preserve"
   width="1024"
   height="768"
   style="fill-rule:evenodd"
   viewBox="0 0 361.244 270.933"
   id="svg2"
   sodipodi:version="0.32"
   inkscape:version="0.46"
   sodipodi:docname="bg_hildon2.svg"
   sodipodi:docbase="/home/admin/prog/X2GO-2/x2goclient/svg"
   version="1.0"
   inkscape:output_extension="org.inkscape.output.svg.inkscape"><metadata
   id="metadata51"><rdf:RDF><cc:Work
       rdf:about=""><dc:format>image/svg+xml</dc:format><dc:type
         rdf:resource="http://purl.org/dc/dcmitype/StillImage" /></cc:Work></rdf:RDF></metadata><sodipodi:namedview
   inkscape:window-height="949"
   inkscape:window-width="1270"
   inkscape:pageshadow="2"
   inkscape:pageopacity="0.0"
   guidetolerance="10.0"
   gridtolerance="10.0"
   objecttolerance="10.0"
   borderopacity="1.0"
   bordercolor="#666666"
   pagecolor="#ffffff"
   id="base"
   inkscape:zoom="0.96875"
   inkscape:cx="512"
   inkscape:cy="384"
   inkscape:window-x="0"
   inkscape:window-y="0"
   inkscape:current-layer="svg2"
   showgrid="true"><inkscape:grid
     type="xygrid"
     id="grid2662"
     visible="true"
     enabled="true"
     dotted="true" /></sodipodi:namedview>
 <defs
   id="defs4"><inkscape:perspective
   sodipodi:type="inkscape:persp3d"
   inkscape:vp_x="0 : 135.5 : 1"
   inkscape:vp_y="0 : 1000 : 0"
   inkscape:vp_z="361.04999 : 135.5 : 1"
   inkscape:persp3d-origin="180.52499 : 90.333333 : 1"
   id="perspective28" /><linearGradient
   inkscape:collect="always"
   id="linearGradient2802"><stop
     style="stop-color:white;stop-opacity:1;"
     offset="0"
     id="stop2804" /><stop
     style="stop-color:white;stop-opacity:0;"
     offset="1"
     id="stop2806" /></linearGradient><linearGradient
   id="linearGradient2852"><stop
     style="stop-color:white;stop-opacity:1;"
     offset="0"
     id="stop2854" /><stop
     style="stop-color:#69f;stop-opacity:0;"
     offset="1"
     id="stop2856" /></linearGradient><linearGradient
   id="linearGradient2844"><stop
     style="stop-color:#deeaed;stop-opacity:1;"
     offset="0"
     id="stop2846" /><stop
     style="stop-color:white;stop-opacity:1;"
     offset="1"
     id="stop2848" /></linearGradient><linearGradient
   inkscape:collect="always"
   id="linearGradient1948"><stop
     style="stop-color:#69f;stop-opacity:1;"
     offset="0"
     id="stop1950" /><stop
     style="stop-color:#69f;stop-opacity:0;"
     offset="1"
     id="stop1952" /></linearGradient>
  <style
   type="text/css"
   id="style6">
   
    .fil1 {fill:#6699FF}
    .fil0 {fill:white}
    .fil2 {fill:#6E707F}
    .fil4 {fill:white}
    .fil3 {fill:url(#id0)}
   
  </style>
  <linearGradient
   id="id0"
   gradientUnits="userSpaceOnUse"
   x1="202.494"
   y1="135.464"
   x2="207.00999"
   y2="135.464">
   <stop
   offset="0"
   style="stop-color:black"
   id="stop9" />
   <stop
   offset="1"
   style="stop-color:#6E707F"
   id="stop11" />
  </linearGradient>
 
  <metadata
   id="CorelCorpID_0Corel-Layer" />
  
  
  
  
  
  
  
 <inkscape:perspective
   sodipodi:type="inkscape:persp3d"
   inkscape:vp_x="0 : 46.062992 : 1"
   inkscape:vp_y="0 : 1000 : 0"
   inkscape:vp_z="92.125984 : 46.062992 : 1"
   inkscape:persp3d-origin="46.062992 : 30.708661 : 1"
   id="perspective2513" /><linearGradient
   gradientUnits="userSpaceOnUse"
   y2="135.46651"
   x2="8.6010475"
   y1="135.46651"
   x1="4.3005238"
   id="linearGradient4855"
   xlink:href="#linearGradient4849"
   inkscape:collect="always" /><linearGradient
   gradientUnits="userSpaceOnUse"
   y2="144.4976"
   x2="162.5598"
   y1="-45.155499"
   x1="18.062202"
   id="linearGradient3339"
   xlink:href="#linearGradient3333"
   inkscape:collect="always" /><linearGradient
   gradientTransform="matrix(2.9166667,0,0,1,-146.75538,31.608847)"
   gradientUnits="userSpaceOnUse"
   y2="121.91985"
   x2="96.761787"
   y1="121.91985"
   x1="50.316132"
   id="linearGradient3241"
   xlink:href="#linearGradient3235"
   inkscape:collect="always" /><linearGradient
   gradientTransform="matrix(1,0,0,1.0470449,0,-6.8968197)"
   gradientUnits="userSpaceOnUse"
   y2="135.96677"
   x2="65.034927"
   y1="135.96677"
   x1="0"
   id="linearGradient3183"
   xlink:href="#linearGradient3177"
   inkscape:collect="always" /><linearGradient
   gradientTransform="matrix(1.0000171,0,0,1.0000148,0,-4.0000546e-3)"
   gradientUnits="userSpaceOnUse"
   y2="120.54888"
   x2="133.85397"
   y1="-49.590809"
   x1="278.59366"
   id="linearGradient2630"
   xlink:href="#linearGradient2802"
   inkscape:collect="always" /><linearGradient
   gradientUnits="userSpaceOnUse"
   y2="207.717"
   x2="107.64762"
   y1="268.11078"
   x1="107.24445"
   id="linearGradient2628"
   xlink:href="#linearGradient1948"
   inkscape:collect="always" />
  
  
  
  
  
  
  
 <metadata
   id="metadata2626" />
 
  <linearGradient
   y2="135.464"
   x2="207.00999"
   y1="135.464"
   x1="202.494"
   gradientUnits="userSpaceOnUse"
   id="linearGradient2620">
   <stop
   id="stop2622"
   style="stop-color:black"
   offset="0" />
   <stop
   id="stop2624"
   style="stop-color:#6E707F"
   offset="1" />
  </linearGradient>
  <style
   id="style2618"
   type="text/css">
   
    .fil1 {fill:#6699FF}
    .fil0 {fill:white}
    .fil2 {fill:#6E707F}
    .fil4 {fill:white}
    .fil3 {fill:url(#id0)}
   
  </style>
  <linearGradient
   id="linearGradient2606"><stop
     id="stop2608"
     offset="0"
     style="stop-color:#deeaed;stop-opacity:1;" /><stop
     id="stop2610"
     offset="1"
     style="stop-color:white;stop-opacity:1;" /></linearGradient><linearGradient
   id="linearGradient2600"><stop
     id="stop2602"
     offset="0"
     style="stop-color:white;stop-opacity:1;" /><stop
     id="stop2604"
     offset="1"
     style="stop-color:#69f;stop-opacity:0;" /></linearGradient><inkscape:perspective
   id="perspective2592"
   inkscape:persp3d-origin="180.52499 : 90.333333 : 1"
   inkscape:vp_z="361.04999 : 135.5 : 1"
   inkscape:vp_y="0 : 1000 : 0"
   inkscape:vp_x="0 : 135.5 : 1"
   sodipodi:type="inkscape:persp3d" /><linearGradient
   id="linearGradient3177"
   inkscape:collect="always"><stop
     id="stop3179"
     offset="0"
     style="stop-color:#ffffff;stop-opacity:1;" /><stop
     id="stop3181"
     offset="1"
     style="stop-color:#ffffff;stop-opacity:0;" /></linearGradient><linearGradient
   id="linearGradient3235"
   inkscape:collect="always"><stop
     id="stop3237"
     offset="0"
     style="stop-color:#ffffff;stop-opacity:1;" /><stop
     id="stop3239"
     offset="1"
     style="stop-color:#ffffff;stop-opacity:0;" /></linearGradient><linearGradient
   id="linearGradient3333"
   inkscape:collect="always"><stop
     id="stop3335"
     offset="0"
     style="stop-color:#241f1c;stop-opacity:1;" /><stop
     id="stop3337"
     offset="1"
     style="stop-color:#241f1c;stop-opacity:0;" /></linearGradient><pattern
   inkscape:collect="always"
   patternUnits="userSpaceOnUse"
   width="30.066020"
   height="5.1805778"
   id="Wavywhite"
   inkscape:stockid="Wavy white"><path
     style="fill:white;stroke:none;"
     d="M 7.597,0.061 C 5.079,-0.187 2.656,0.302 -0.01,1.788 L -0.01,3.061 C 2.773,1.431 5.173,1.052 7.472,1.280 C 9.770,1.508 11.969,2.361 14.253,3.218 C 18.820,4.931 23.804,6.676 30.066,3.061 L 30.062,1.788 C 23.622,5.497 19.246,3.770 14.691,2.061 C 12.413,1.207 10.115,0.311 7.597,0.061 z "
     id="path4539" /></pattern><pattern
   patternTransform="matrix(1.0895522,0,0,1.0923077,-3.8512144,-24.413743)"
   id="pattern4837"
   xlink:href="#Wavywhite"
   inkscape:collect="always" /><linearGradient
   id="linearGradient4849"
   inkscape:collect="always"><stop
     id="stop4851"
     offset="0"
     style="stop-color:#000000;stop-opacity:1;" /><stop
     id="stop4853"
     offset="1"
     style="stop-color:#000000;stop-opacity:0;" /></linearGradient></defs>
 
<g
   style="fill-rule:evenodd"
   id="g2637"
   transform="matrix(0.9999999,0,0,0.75,1.1985799e-5,33.866609)"><rect
     class="fil0"
     x="-1.19858e-05"
     y="-45.155499"
     width="361.24399"
     height="361.24399"
     id="rect15"
     style="fill:#246ed8;fill-opacity:1" /><rect
     y="-45.155499"
     x="1.1936351e-17"
     height="361.24399"
     width="4.3005238"
     id="rect4845"
     style="opacity:1;fill:#ffffff;fill-opacity:1;stroke:none;stroke-width:2;stroke-linecap:butt;stroke-miterlimit:4;stroke-dasharray:none;stroke-dashoffset:0;stroke-opacity:1" /><rect
     y="-45.155499"
     x="4.3005238"
     height="361.24399"
     width="4.3005238"
     id="rect4847"
     style="opacity:1;fill:url(#linearGradient4855);fill-opacity:1;stroke:none;stroke-width:2;stroke-linecap:butt;stroke-miterlimit:4;stroke-dasharray:none;stroke-dashoffset:0;stroke-opacity:1" /><path
     id="_209413168"
     transform="matrix(0.8601048,0,0,0.8601048,0,-45.1555)"
     d="M 420,73.59375 L 370.5,93.625 L 373.09375,100 C 379.49518,97.412175 384.39526,96.53839 387.8125,97.40625 C 390.9628,98.156671 393.53027,100.71466 395.25,104.96875 C 396.26575,107.48139 397.08799,112.77888 397.375,120.53125 L 390.5625,204.46875 L 332.625,146.71875 C 328.33582,142.60825 325.32895,138.4354 323.6875,134.375 C 320.32776,126.06411 324.51584,119.64255 336,115 L 333.40625,108.625 L 258.875,138.75 L 261.4375,145.125 C 268.96901,142.08033 275.57757,141.65299 281.28125,143.84375 C 286.79879,146.11186 294.1041,151.7026 303.1875,160.625 L 387.59375,244.8125 L 378.84375,363.5 C 378.24982,373.41128 376.56251,380.5983 374.125,385.40625 C 371.6882,390.21599 367.86572,393.78832 362.78125,395.84375 L 365.375,402.21875 L 417.90625,381 L 415.3125,374.625 C 404.01698,379.19129 396.82884,377.58154 393.625,369.65625 C 391.98428,365.59765 391.65765,359.42975 392.5,351.21875 L 399.9375,256.90625 L 420,276.625 L 420,233.5 L 402.5625,216.28125 L 410.0625,123.75 C 411.49702,105.62843 413.1084,93.921654 415.65625,88.84375 C 416.67884,86.804613 418.13055,84.947296 420,83.21875 L 420,73.59375 z"
     style="opacity:0.27156552;fill:#ffffff;fill-rule:evenodd" /><polygon
     transform="matrix(15.022925,-6.0731257,6.2359213,15.425628,-4143.281,-2655.1065)"
     style="opacity:0.27156552;fill:#ffffff;fill-rule:evenodd"
     points="179.314,250.52 185.945,250.339 185.945,250.702 179.314,250.52 "
     class="fil4"
     id="_209583128" /><polygon
     transform="matrix(15.022925,-6.0731257,6.2359213,15.425628,-4143.281,-2655.1065)"
     style="opacity:0.27156552;fill:#ffffff;fill-rule:evenodd"
     points="179.314,251.425 185.945,251.243 185.945,251.492 186.724,251.505 186.777,251.507 186.827,251.512 186.872,251.517 186.914,251.524 186.953,251.532 186.988,251.541 187.02,251.55 187.048,251.56 187.074,251.571 187.097,251.581 187.118,251.592 187.137,251.603 187.154,251.615 187.169,251.627 187.178,251.635 187.184,251.64 179.314,251.425 "
     class="fil4"
     id="_209423624" /><polygon
     transform="matrix(15.022925,-6.0731257,6.2359213,15.425628,-4143.281,-2655.1065)"
     style="opacity:0.27156552;fill:#ffffff;fill-rule:evenodd"
     points="179.314,252.329 187.498,252.105 187.529,252.163 187.572,252.245 187.616,252.333 187.661,252.426 187.707,252.524 187.723,252.56 179.314,252.329 "
     class="fil4"
     id="_208944912" /><polygon
     transform="matrix(15.022925,-6.0731257,6.2359213,15.425628,-4143.281,-2655.1065)"
     style="opacity:0.27156552;fill:#ffffff;fill-rule:evenodd"
     points="179.314,253.234 187.916,252.998 188.124,253.475 179.314,253.234 "
     class="fil4"
     id="_209380624" /><polygon
     transform="matrix(15.022925,-6.0731257,6.2359213,15.425628,-4143.281,-2655.1065)"
     style="opacity:0.27156552;fill:#ffffff;fill-rule:evenodd"
     points="179.314,254.138 188.306,253.892 188.525,254.391 179.314,254.138 "
     class="fil4"
     id="_209438256" /><polygon
     transform="matrix(15.022925,-6.0731257,6.2359213,15.425628,-4143.281,-2655.1065)"
     style="opacity:0.27156552;fill:#ffffff;fill-rule:evenodd"
     points="179.314,255.043 188.697,254.786 188.925,255.306 179.314,255.043 "
     class="fil4"
     id="_209597128" /><polygon
     transform="matrix(15.022925,-6.0731257,6.2359213,15.425628,-4143.281,-2655.1065)"
     style="opacity:0.27156552;fill:#ffffff;fill-rule:evenodd"
     points="179.314,255.947 189.088,255.679 189.325,256.221 179.314,255.947 "
     class="fil4"
     id="_209596936" /><polygon
     transform="matrix(15.022925,-6.0731257,6.2359213,15.425628,-4143.281,-2655.1065)"
     style="opacity:0.27156552;fill:#ffffff;fill-rule:evenodd"
     points="179.314,256.851 189.479,256.573 189.725,257.137 179.314,256.851 "
     class="fil4"
     id="_209588560" /><polygon
     transform="matrix(15.022925,-6.0731257,6.2359213,15.425628,-4143.281,-2655.1065)"
     style="opacity:0.27156552;fill:#ffffff;fill-rule:evenodd"
     points="179.314,257.756 189.87,257.467 190.094,257.979 190.058,258.05 179.314,257.756 "
     class="fil4"
     id="_209560832" /><polygon
     transform="matrix(15.022925,-6.0731257,6.2359213,15.425628,-4143.281,-2655.1065)"
     style="opacity:0.27156552;fill:#ffffff;fill-rule:evenodd"
     points="179.314,258.66 189.896,258.37 189.607,258.942 179.314,258.66 "
     class="fil4"
     id="_209558944" /><polygon
     transform="matrix(15.022925,-6.0731257,6.2359213,15.425628,-4143.281,-2655.1065)"
     style="opacity:0.27156552;fill:#ffffff;fill-rule:evenodd"
     points="179.314,259.565 189.432,259.288 189.155,259.834 179.314,259.565 "
     class="fil4"
     id="_209559488" /><polygon
     transform="matrix(15.022925,-6.0731257,6.2359213,15.425628,-4143.281,-2655.1065)"
     style="opacity:0.27156552;fill:#ffffff;fill-rule:evenodd"
     points="179.314,260.469 188.968,260.205 188.704,260.727 179.314,260.469 "
     class="fil4"
     id="_209558344" /><polygon
     transform="matrix(15.022925,-6.0731257,6.2359213,15.425628,-4143.281,-2655.1065)"
     style="opacity:0.27156552;fill:#ffffff;fill-rule:evenodd"
     points="179.314,261.374 188.504,261.122 188.253,261.619 179.314,261.374 "
     class="fil4"
     id="_209557016" /><path
     id="_209557776"
     transform="matrix(0.8601048,0,0,0.8601048,0,-45.1555)"
     d="M 350.53125,401.875 L 309.0625,420 L 321.90625,420 L 353.15625,408.375 L 350.53125,401.875 z"
     style="opacity:0.27156552;fill:#ffffff;fill-rule:evenodd" /><path
     id="_209553608"
     transform="matrix(0.8601048,0,0,0.8601048,0,-45.1555)"
     d="M 362.53125,377.53125 L 265.40625,420 L 271.71875,420 L 346.59375,392.15625 L 345.03125,388.25 L 357.96875,382.6875 L 358.34375,382.5 L 358.71875,382.3125 L 359.03125,382.125 L 359.34375,381.90625 L 359.625,381.6875 L 359.90625,381.46875 L 360.15625,381.25 L 360.40625,381 L 360.65625,380.75 L 360.875,380.46875 L 361.125,380.1875 L 361.3125,379.875 L 361.53125,379.5625 L 361.75,379.21875 L 361.9375,378.84375 L 362.15625,378.40625 L 362.375,377.875 L 362.53125,377.53125 z"
     style="opacity:0.27156552;fill:#ffffff;fill-rule:evenodd" /><polygon
     transform="matrix(15.022925,-6.0731257,6.2359213,15.425628,-4143.281,-2655.1065)"
     style="opacity:0.27156552;fill:#ffffff;fill-rule:evenodd"
     points="179.314,263.183 187.576,262.956 187.455,263.196 187.414,263.277 187.378,263.348 187.348,263.403 179.314,263.183 "
     class="fil4"
     id="_209553416" /><polygon
     transform="matrix(15.022925,-6.0731257,6.2359213,15.425628,-4143.281,-2655.1065)"
     style="opacity:0.27156552;fill:#ffffff;fill-rule:evenodd"
     points="179.314,262.278 188.04,262.039 187.801,262.511 179.314,262.278 "
     class="fil4"
     id="_209552080" /><path
     id="_208969032"
     transform="matrix(0.8601048,0,0,0.8601048,0,-45.1555)"
     d="M 417.21875,28.1875 C 414.29375,28.254543 411.31981,28.847438 408.46875,30 L 118.875,147.09375 C 105.84158,152.36261 99.589912,167.61721 105,181 L 201.625,420 L 207.75,420 L 111.34375,181.5625 C 106.5347,169.66648 112.10205,156.121 123.6875,151.4375 L 408.03125,36.46875 C 411.94168,34.887931 416.07455,34.533239 420,35.1875 L 420,28.28125 C 419.06926,28.198089 418.1586,28.165957 417.21875,28.1875 z"
     style="opacity:0.27156552;fill:#ffffff;fill-rule:evenodd" /><path
     style="opacity:0.27156552;fill:#ffffff;fill-rule:evenodd"
     d="M 350.53125,401.875 L 309.0625,420 L 321.90625,420 L 353.15625,408.375 L 350.53125,401.875 z"
     transform="matrix(0.8601048,0,0,0.8601048,0,-45.1555)"
     id="path3356" /></g></svg>