<?xml version="1.0" encoding="UTF-8" standalone="no"?>
<svg
   xmlns:dc="http://purl.org/dc/elements/1.1/"
   xmlns:cc="http://creativecommons.org/ns#"
   xmlns:rdf="http://www.w3.org/1999/02/22-rdf-syntax-ns#"
   xmlns:svg="http://www.w3.org/2000/svg"
   xmlns="http://www.w3.org/2000/svg"
   xmlns:sodipodi="http://sodipodi.sourceforge.net/DTD/sodipodi-0.dtd"
   xmlns:inkscape="http://www.inkscape.org/namespaces/inkscape"
   id="svg1356"
   sodipodi:version="0.32"
   inkscape:version="0.47 r22583"
   width="100"
   height="100"
   sodipodi:docname="logo-obvioulsy-nice.svg"
   inkscape:export-filename="/Users/h1/Desktop/logo-obvioulsy-nice.png"
   inkscape:export-xdpi="90.000000"
   inkscape:export-ydpi="90.000000"
   version="1.1">
  <metadata
     id="metadata1477">
    <rdf:RDF>
      <cc:Work
         rdf:about="">
        <dc:format>image/svg+xml</dc:format>
        <dc:type
           rdf:resource="http://purl.org/dc/dcmitype/StillImage" />
        <dc:title></dc:title>
      </cc:Work>
    </rdf:RDF>
  </metadata>
  <defs
     id="defs1475">
    <inkscape:perspective
       sodipodi:type="inkscape:persp3d"
       inkscape:vp_x="0 : 526.18109 : 1"
       inkscape:vp_y="0 : 1000 : 0"
       inkscape:vp_z="744.09448 : 526.18109 : 1"
       inkscape:persp3d-origin="372.04724 : 350.78739 : 1"
       id="perspective64" />
  </defs>
  <sodipodi:namedview
     inkscape:window-height="683"
     inkscape:window-width="1024"
     inkscape:pageshadow="2"
     inkscape:pageopacity="0.0"
     borderopacity="1.0"
     bordercolor="#666666"
     pagecolor="#ffffff"
     id="base"
     inkscape:zoom="4.42"
     inkscape:cx="50"
     inkscape:cy="50"
     inkscape:window-x="-4"
     inkscape:window-y="-3"
     inkscape:current-layer="svg1356"
     showgrid="true"
     inkscape:window-maximized="1">
    <inkscape:grid
       type="xygrid"
       id="grid2870"
       empspacing="5"
       visible="true"
       enabled="true"
       snapvisiblegridlinesonly="true"
       dotted="true" />
  </sodipodi:namedview>
  <g
     id="g2872"
     transform="matrix(0.34373098,0,0,0.34373098,-87.478643,130.45958)"
     style="fill:#ffffff">
    <g
       transform="translate(0,-952.36218)"
       id="g1358"
       style="fill:#ffffff;fill-opacity:1">
      <path
         style="fill:#ffffff;fill-opacity:1"
         id="path1360"
         d="m 327.888,630.514 c 14.76,0 29.016,11.808 27.504,24.336 -1.44,12.6 -20.088,21.456 -32.328,24.408 -12.24,3.024 -25.92,-3.528 -25.92,-17.856 0,-14.328 16.056,-30.888 30.744,-30.888 z" />
    </g>
    <g
       transform="translate(0,-952.36218)"
       id="g1362"
       style="fill:#ffffff;fill-opacity:1">
      <path
         style="fill:#ffffff;fill-opacity:1"
         id="path1364"
         d="m 475.128,640.234 c -14.688,0 -32.112,10.224 -30.6,22.752 1.44,12.6 20.088,21.456 32.328,24.408 12.24,3.024 25.92,-3.528 25.92,-17.856 0,-14.328 -12.888,-29.304 -27.648,-29.304 z" />
    </g>
    <g
       transform="translate(0,-952.36218)"
       id="g1366"
       style="fill:#ffffff;fill-opacity:1">
      <path
         style="fill:#ffffff;fill-opacity:1"
         id="path1368"
         d="m 394.272,708.562 c 20.88,0 38.808,-8.424 38.808,3.24 0,9.864 -19.08,21.888 -35.568,26.064 -3.096,0.72 -3.168,25.92 -6.48,25.92 -3.24,0 -0.216,-23.328 -3.24,-24.336 -16.2,-5.256 -30.744,-22.68 -30.744,-32.544 0,-11.592 16.272,1.656 37.224,1.656 z" />
    </g>
    <g
       transform="translate(0,-952.36218)"
       id="g1370"
       style="fill:#ffffff;fill-opacity:1">
      <path
         style="fill:#ffffff;fill-opacity:1"
         id="path1372"
         d="m 391.032,775.162 c 17.856,0 43.92,24.048 58.248,24.408 27.288,0.72 43.704,-24.264 43.704,-22.752 0,1.44 -19.656,28.584 -46.944,29.232 -14.328,0.432 -38.736,-22.752 -56.592,-22.752 -21.24,0 -37.656,18.432 -53.424,17.928 -23.112,-0.792 -35.64,-20.664 -35.64,-21.96 0,-1.296 12.96,17.784 33.984,17.064 16.416,-0.576 33.84,-21.168 56.664,-21.168 z" />
    </g>
  </g>
</svg>
