/* XPM */
static char *x_goclient[] = {
/* columns rows colors chars-per-pixel */
"32 32 242 2",
"   c #353B54",
".  c #3B3E52",
"X  c #343D5A",
"o  c #383F5A",
"O  c #3D454F",
"+  c #3E4155",
"@  c #3A425E",
"#  c #374263",
"$  c #3E4562",
"%  c #33426E",
"&  c #3C466C",
"*  c #3E496E",
"=  c #2F4575",
"-  c #2F487C",
";  c #314373",
":  c #3C4A73",
">  c #33467A",
",  c #374B7C",
"<  c #3F547F",
"1  c #42434F",
"2  c #4D4D4D",
"3  c #444553",
"4  c #464851",
"5  c #434559",
"6  c #47495B",
"7  c #404561",
"8  c #444A65",
"9  c #494D63",
"0  c #434C6B",
"q  c #494F6D",
"w  c #4C5165",
"e  c #47516E",
"r  c #4B546D",
"t  c #545564",
"y  c #555C65",
"u  c #54556A",
"i  c #555A6E",
"p  c #5D5E6A",
"a  c #444F76",
"s  c #484F70",
"d  c #4C5471",
"f  c #4D5872",
"g  c #46537B",
"h  c #525672",
"j  c #545B72",
"k  c #5B5F73",
"l  c #555E7B",
"z  c #595E7B",
"x  c #5E656D",
"c  c #5D6074",
"v  c #57627F",
"b  c #5D637A",
"n  c #636474",
"m  c #656B73",
"M  c #6A6F76",
"N  c #62667C",
"B  c #66697C",
"V  c #6A6C7C",
"C  c #6D727A",
"Z  c #777777",
"A  c #72757E",
"S  c #73787F",
"D  c #797979",
"F  c #334E85",
"G  c #3C5183",
"H  c #37548C",
"J  c #3C5489",
"K  c #3D5A93",
"L  c #345A9D",
"P  c #415587",
"I  c #455887",
"U  c #4E5D85",
"Y  c #455B8A",
"T  c #4A5E8B",
"R  c #475F95",
"E  c #485E91",
"W  c #4F628E",
"Q  c #516186",
"!  c #5A6482",
"~  c #53648C",
"^  c #596789",
"/  c #5B6A8C",
"(  c #476196",
")  c #496093",
"_  c #466199",
"`  c #4B659C",
"'  c #4F689E",
"]  c #526491",
"[  c #546993",
"{  c #596992",
"}  c #536C9E",
"|  c #5E6F99",
" . c #5F7194",
".. c #646A83",
"X. c #696D82",
"o. c #626B8A",
"O. c #6F7287",
"+. c #6B718C",
"@. c #6D788F",
"#. c #747583",
"$. c #767A83",
"%. c #797D85",
"&. c #75778C",
"*. c #747A8D",
"=. c #7C7E8E",
"-. c #616D92",
";. c #667394",
":. c #6A7696",
">. c #6D7891",
",. c #6A7A9C",
"<. c #717792",
"1. c #7A7F96",
"2. c #787F9A",
"3. c #4F6DA4",
"4. c #546DA1",
"5. c #5770A0",
"6. c #5C74A3",
"7. c #5774A9",
"8. c #5C7AAE",
"9. c #4372BF",
"0. c #647BA7",
"q. c #6E7DA2",
"w. c #627EAF",
"e. c #4976C0",
"r. c #487CCD",
"t. c #7E828A",
"y. c #7E8293",
"u. c #7C829A",
"i. c #7284A3",
"p. c #7C86A1",
"a. c #7184AB",
"s. c #7887AA",
"d. c #7A8DAC",
"f. c #6683B3",
"g. c #6C89BB",
"h. c #728AB7",
"j. c #7E8FB1",
"k. c #4580D8",
"l. c #4C85DB",
"z. c #7492C2",
"x. c #7F9BC7",
"c. c #7393C9",
"v. c #6693D7",
"b. c #759EDD",
"n. c #78A0DE",
"m. c #518BE2",
"M. c #69A1F2",
"N. c #78ABF6",
"B. c #83848D",
"V. c #84898F",
"C. c #838591",
"Z. c #858990",
"A. c #898D93",
"S. c #86899D",
"D. c #8D8D9B",
"F. c #8F909C",
"G. c #93939E",
"H. c #868FA2",
"J. c #8C92A2",
"K. c #9296A5",
"L. c #9C9CA2",
"P. c #9D9DAB",
"I. c #8193B4",
"U. c #8A95B2",
"Y. c #8194B9",
"T. c #939CB0",
"R. c #9EA0A4",
"E. c #9FA0AC",
"W. c #8EA1BF",
"Q. c #A4A4A5",
"!. c #A2A4AD",
"~. c #ACACAC",
"^. c #A9ACB0",
"/. c #A3AABF",
"(. c #ADB0B5",
"). c #B3B3B4",
"_. c #B1B3B9",
"`. c #BBBBBD",
"'. c #879DC5",
"]. c #859FCB",
"[. c #8EA2C7",
"{. c #94A5C2",
"}. c #95A9CB",
"|. c #87A5D2",
" X c #88A6D3",
".X c #8FABD9",
"XX c #94ADD3",
"oX c #93AFDE",
"OX c #ABB7CE",
"+X c #ACB8CF",
"@X c #B1B8C4",
"#X c #BBBEC4",
"$X c #B7BECA",
"%X c #A4B6D2",
"&X c #A7B9D4",
"*X c #8BAEE3",
"=X c #9BB7E0",
"-X c #9BB8E1",
";X c #85B7FF",
":X c #8FBDFF",
">X c #91BEFE",
",X c #BBC1CD",
"<X c #97C1FF",
"1X c #9CC4FF",
"2X c #AAC0E0",
"3X c #AEC7EC",
"4X c #B6C7E4",
"5X c #BACCE5",
"6X c #A0C7FF",
"7X c #A6CAFF",
"8X c #ACCEFF",
"9X c #AFD0FF",
"0X c #B2D2FF",
"qX c #BAD6FF",
"wX c #BED8FF",
"eX c #C1C1C3",
"rX c #C6C6C8",
"tX c #CACACB",
"yX c #D9D9D9",
"uX c #CBD4E1",
"iX c #CAD7EA",
"pX c #CBD8EB",
"aX c #D0DCEE",
"sX c #C0D5F3",
"dX c #C4DCFE",
"fX c #C9DFFF",
"gX c #CDE1FF",
"hX c #D5E1F3",
"jX c #DAE4F2",
"kX c #D3E5FE",
"lX c #DBE7FA",
"zX c #DBEAFF",
"xX c #EAEAEC",
"cX c #E7EDF7",
"vX c #EFEFF0",
"bX c #E3EEFE",
"nX c #E7F1FF",
"mX c #EBF3FF",
"MX c #F1F7FF",
"NX c #F5F9FE",
"BX c #FEFEFE",
"VX c None",
/* pixels */
"VXVXx m m m M M C C C A C S S S %.%.%.%.%.t.t.t.B.t.V.V.V.t.VXVX",
"VXM ~.BXBXBXBXBXBXBXBXBXBXNXNXNXNXNXNXBXBXBXBXBXBXBXBXBXBX(.R.VX",
"x _.BXBXBXBXBXBXBXBXNXNXmXmXmXnXnXnXmXMXMXBXBXBXBXBXBXBXBXBX(.B.",
"x BXBXBXBXBXBXBXNXMXmXbXlXzXzXzXzXzXzXbXnXmXMXNXBXBXBXBXBXBXBXA.",
"x BXeXL.V.A n n k p n n n 5X#.B.Z.D.G.G.B.zXbXnXC._.`.#XeXF.BXA.",
"x BXeXL.Z.#.V B N N ......}.}.+.Q.Q.~.y.dXgXzXlXnXS.yXrX_.BXBXA.",
"x BXBXBXBXvXjXuX5X&X{.I.i.:.;.oX=.Q.~.u.qXdXfXkXzXJ.yXP.BXBXBXA.",
"x BXeXL.C.V c i i j k b ..X.O.o.h.Q.~.G.8X0XqXfXkXE.!.NXBXBXBXA.",
"x BXtXL.t.X.c i i l c b ....O.*.g.1.~.).i.7X0XqXU.tX{.MXBXBXBXZ.",
"x BXBXMXnXkXwX3X-X Xh.f.6.[ ~ Q | 6.~.).S.1X7X0XE.K.lXbXMXBXBXD.",
"x BX#XK.y.! c l l l ! ! ! o.o.+.o.M.J.)._.z.1Xs.tX{.gXzXnXNXBXA.",
"x BX#XJ.*.b f r r r i v b ..#.=.C.{ -.).).1.>XE.J.qXfXlXnXNXBXA.",
"x BXcXpX5X2XXXx.g.8.7.3.` ( E T Q ~ m.Q.).).;.#X|.0XdXgXbXMXBXA.",
"x NX,XT.p.>./ / { ~ ] ~ ) ] { { | +.e.:.`.`.`.S.1X9XwXgXzXnXNXA.",
"x NX@XJ.>.! f w e r r f c N V #.C.D.&.r._.`.eXc.1X8XqXgXlXmXNXA.",
"y NXuX+X{.Y.a.f.6.} ' ` ` R ( ) ] { { e.y.`.eX,.1X8XqXfXzXmXNX%.",
"O NXuX&X{.j.i.f.6.4.` ` R R E E W ^ / 3.I Z Z k 1X8XqXfXzXnXNXO ",
"O NX,XH.>.v r * $ # X X       . + 1 + r.+ 4 2 2 0.8XwXfXzXnXNXO ",
"O NX,XE.p.;.^ Q T I P G F > > = ; % L H 4 : 2 2 7 8XdXfXzXmXBXO ",
"O NXnXaX5X2XXXx.g.8.4._ K H F - = = l.+ & N.3 2 2 '.dXgXbXmXBXO ",
"O BX`.J.*.b r $ $ @ o @ o o + . + , J 4 v.;Xg 2 2 q fXkXbXNXBX1 ",
"O BX,XF.*.b j f e 0 * & & & & & # M.3 : ;X>X*X4 2 4 4XzXnXNXBXO ",
"O BXBXMXnXgXsX3X-X|.z.f.} T P : 3.I 4 b.>X1X7Xs 2 2 l bXMXBXBXO ",
"O BXrXR.y.X.k w 0 8 8 $ $ $ 7 @ b.5 a <X1X7X0X[.2 2 3 cXBXBXBXO ",
"O BXeXG.V.V i w 9 9 7 5 7 7 7 [ U 4 *X7X8X0XwXfX9 2 2 &.BXBXBXO ",
"O BXBXBXBXvXjXiX4X%XW.d.,./  ..X4 0 9X0XqXwXgXkX<.2 2 4 xXBXBX1 ",
"O BXeXR.V.#.N c j h h d d j.XX8 2 d qXdXfXgXkXzXK.2 2 2 u xXBXO ",
"O BXeXG.B.M p t 9 6 5 3 5 4X3 3 3 3 + kXkXzXbXu 3 3 5 5 5 3 BXO ",
"O BXBXBXBXBXBXBXBXmXnXbXhXzXzXzXzXzXzXbXbXnXMXBXBXBXBXBXBXBXBXO ",
"O _.BXBXBXBXBXBXBXBXBXMXmXmXnXnXbXnXmXmXMXBXBXBXBXBXBXBXBXBXQ.O ",
"VX4 ).BXBXBXBXBXBXBXBXBXBXBXNXNXNXNXNXBXBXBXBXBXBXBXBXBXBX(.4 VX",
"VXVXO O O O O O O O O O O O O O 1 O O O O O O O O O O O O O VXVX"
};
