/* XPM */
static char *x_goclient_new[] = {
/* columns rows colors chars-per-pixel */
"32 32 9 1",
"  c #1C3C1C3C1C3C",
". c #1F5F1F5F1F5F",
"X c #228222822282",
"o c #25A625A625A6",
"O c #28C928C928C9",
"+ c #2BEC2BEC2BEC",
"@ c #2F0F2F0F2F0F",
"# c #323232323232",
"$ c None",
/* pixels */
"$o$$$$$$$$$$$$$$$$$$$$$$$$$$$$o$",
"o$$$$$$$$$$$$$$$$$$$$$$$$$$$$$$o",
"$$$$$$$$$$$$$$$$$$$$$$$$$$$$$$$$",
"$$$$$$$$$$$$$$$$$$$$$$$$$$$$$$$$",
"$$$$$$$$$$$$$$ @###@$$$$$ ##@$$$",
"$$$$$$$$$$$$$$$$@##$$$$$$$O@$$$$",
"$$$$$$$$$$$$$$$$$## $$$$$$#$$$$$",
"$$$$$$$$$$$$$$$$$@#@$$$$$$o$$$$$",
"$$$$$$$$$$$$$$ o$ ##$$$$$#$$$$$$",
"$$$$$$$$$$$$$$$$$$##@$$$ o$$$$$$",
"$$$$$$$$$$$$$$$$$$X##$$$#$$$$$$$",
"$$$$$$$$$$$$$$Xo#$$##o$ o$$$$$$$",
"$$$$$$$$$$$$$$$$$$$@##$#$$$$$$$$",
"$$$$$$$$$$$$$$$$$$$$###o$$$$$$$$",
"$$$$$$$$$$$$$$ o@#o$@##$$$$$$$$$",
"$$$$$$$$$$$$$$$$$$$$$##$$$$$$$$$",
"$$$$$$$$$$$$$$$$$$$$$##@$$$$$$$$",
"$$$$$$$$$$$$$$$@###$X###$$$$$$$$",
"$$$$$$$$$$$$$$$$$$$$#$##@$$$$$$$",
"$$$$$$$$$$$$$$$$$$$  $o##$$$$$$$",
"$$$$$$$$$$$$$$$O#$$#$$$##o$$$$$$",
"$$$$$$$$$$$$$$$$$$ X$$$@##$$$$$$",
"$$$$$$$$$$$$$$$$$$#$$$$$## $$$$$",
"$$$$$$$$$$$$$$$X$X $$$$$###$$$$$",
"$$$$$$$$$$$$$$$$$#$$$$$$$##$$$$$",
"$$$$$$$$$$$$$$$$oX$$$$$$$##@$$$$",
"$$$$$$$$$$$$$$$$#$$$$$$$$o## $$$",
"$$$$$$$$$$$$$$ @#O$$$$$$ #### $$",
"$$$$$$$$$$$$$$$$$$$$$$$$$$$$$$$$",
"$$$$$$$$$$$$$$$$$$$$$$$$$$$$$$$$",
"X$$$$$$$$$$$$$$$$$$$$$$$$$$$$$$o",
"$X$$$$$$$$$$$$$$$$$$$$$$$$$$$$o$"
};
