<?xml version="1.0" encoding="UTF-8" standalone="no"?>
<!-- Created with Inkscape (http://www.inkscape.org/) -->
<svg
   xmlns:dc="http://purl.org/dc/elements/1.1/"
   xmlns:cc="http://creativecommons.org/ns#"
   xmlns:rdf="http://www.w3.org/1999/02/22-rdf-syntax-ns#"
   xmlns:svg="http://www.w3.org/2000/svg"
   xmlns="http://www.w3.org/2000/svg"
   xmlns:sodipodi="http://sodipodi.sourceforge.net/DTD/sodipodi-0.dtd"
   xmlns:inkscape="http://www.inkscape.org/namespaces/inkscape"
   width="128"
   height="128"
   id="svg2581"
   sodipodi:version="0.32"
   inkscape:version="0.46"
   sodipodi:docbase="/home/admin/prog/X2GO-2/x2goclient"
   sodipodi:docname="x2go_hildon.svg"
   version="1.0"
   inkscape:output_extension="org.inkscape.output.svg.inkscape"
   inkscape:export-filename="/home/h1/Desktop/x2go_hildon_64.png"
   inkscape:export-xdpi="45"
   inkscape:export-ydpi="45">
  <defs
     id="defs2583">
    <inkscape:perspective
       sodipodi:type="inkscape:persp3d"
       inkscape:vp_x="0 : 46.062992 : 1"
       inkscape:vp_y="0 : 1000 : 0"
       inkscape:vp_z="92.125984 : 46.062992 : 1"
       inkscape:persp3d-origin="46.062992 : 30.708661 : 1"
       id="perspective27" />
  </defs>
  <sodipodi:namedview
     id="base"
     pagecolor="#ffffff"
     bordercolor="#666666"
     borderopacity="1.0"
     inkscape:pageopacity="0.0"
     inkscape:pageshadow="2"
     inkscape:zoom="5.8125"
     inkscape:cx="64"
     inkscape:cy="64"
     inkscape:document-units="px"
     inkscape:current-layer="layer1"
     inkscape:window-width="1270"
     inkscape:window-height="949"
     inkscape:window-x="0"
     inkscape:window-y="0"
     showgrid="false" />
  <metadata
     id="metadata2586">
    <rdf:RDF>
      <cc:Work
         rdf:about="">
        <dc:format>image/svg+xml</dc:format>
        <dc:type
           rdf:resource="http://purl.org/dc/dcmitype/StillImage" />
      </cc:Work>
    </rdf:RDF>
  </metadata>
  <g
     inkscape:label="Ebene 1"
     inkscape:groupmode="layer"
     id="layer1">
    <rect
       style="opacity:1;fill:#ffffff;fill-opacity:1;stroke:none;stroke-width:1;stroke-linecap:butt;stroke-miterlimit:4;stroke-dasharray:none;stroke-dashoffset:0;stroke-opacity:1"
       id="rect2400"
       width="128"
       height="128"
       x="0"
       y="0.17204301"
       ry="9.9784946" />
    <g
       style="fill:#4d4d4d;fill-rule:evenodd"
       id="_208969008"
       transform="matrix(6.6338773,0,0,6.6338773,-1182.5304,-1645.9379)">
      <path
         style="fill:#4d4d4d"
         d="M 191.842,256.126 L 193.8467,252.2349 C 193.9868,251.8578 194.0516,251.5883 194.0516,251.4482 C 194.0516,251.211 193.9761,251.0386 193.836,250.9416 C 193.6851,250.8338 193.4264,250.7799 193.0599,250.7799 L 193.0599,250.4242 L 196.3905,250.4242 L 196.3905,250.7799 C 195.9378,250.7799 195.6036,250.8769 195.3773,251.0709 C 195.1509,251.2649 194.8383,251.7931 194.4072,252.6338 L 192.1977,256.9236 L 194.9785,263.1966 C 195.2587,263.7894 195.5066,264.1989 195.733,264.4253 C 195.9485,264.6409 196.2072,264.7595 196.4982,264.7595 L 196.4982,265.1151 L 192.521,265.1151 L 192.521,264.7595 C 192.8875,264.7595 193.1354,264.7163 193.2863,264.6193 C 193.4372,264.5331 193.5126,264.3822 193.5126,264.1882 C 193.5126,264.005 193.4049,263.6816 193.2108,263.1966 L 191.2599,258.8206 L 189.018,263.1966 C 188.8132,263.5738 188.7055,263.8757 188.7055,264.102 C 188.7055,264.5439 189.0288,264.7595 189.6755,264.7595 L 189.6755,265.1151 L 186.6683,265.1151 L 186.6683,264.7595 C 186.9594,264.7595 187.218,264.6625 187.4336,264.4792 C 187.6492,264.296 187.8755,263.9834 188.1019,263.5199 L 190.8935,258.0014 L 188.4145,252.332 C 188.145,251.7284 187.8971,251.3188 187.6707,251.1032 C 187.4336,250.8877 187.0995,250.7799 186.6683,250.7799 L 186.6683,250.4242 L 190.9366,250.4242 L 190.9366,250.7799 C 190.2791,250.7799 189.945,251.0063 189.945,251.4697 C 189.945,251.6961 190.0097,251.9548 190.139,252.2349 L 191.842,256.126 L 191.842,256.126 z"
         class="fil4"
         id="_209413168" />
      <polygon
         style="fill:#4d4d4d"
         points="179.314,250.52 185.945,250.339 185.945,250.702 179.314,250.52 "
         class="fil4"
         id="_209583128" />
      <polygon
         style="fill:#4d4d4d"
         points="179.314,251.425 185.945,251.243 185.945,251.492 186.724,251.505 186.777,251.507 186.827,251.512 186.872,251.517 186.914,251.524 186.953,251.532 186.988,251.541 187.02,251.55 187.048,251.56 187.074,251.571 187.097,251.581 187.118,251.592 187.137,251.603 187.154,251.615 187.169,251.627 187.178,251.635 187.184,251.64 179.314,251.425 "
         class="fil4"
         id="_209423624" />
      <polygon
         style="fill:#4d4d4d"
         points="179.314,252.329 187.498,252.105 187.529,252.163 187.572,252.245 187.616,252.333 187.661,252.426 187.707,252.524 187.723,252.56 179.314,252.329 "
         class="fil4"
         id="_208944912" />
      <polygon
         style="fill:#4d4d4d"
         points="179.314,253.234 187.916,252.998 188.124,253.475 179.314,253.234 "
         class="fil4"
         id="_209380624" />
      <polygon
         style="fill:#4d4d4d"
         points="179.314,254.138 188.306,253.892 188.525,254.391 179.314,254.138 "
         class="fil4"
         id="_209438256" />
      <polygon
         style="fill:#4d4d4d"
         points="179.314,255.043 188.697,254.786 188.925,255.306 179.314,255.043 "
         class="fil4"
         id="_209597128" />
      <polygon
         style="fill:#4d4d4d"
         points="179.314,255.947 189.088,255.679 189.325,256.221 179.314,255.947 "
         class="fil4"
         id="_209596936" />
      <polygon
         style="fill:#4d4d4d"
         points="179.314,256.851 189.479,256.573 189.725,257.137 179.314,256.851 "
         class="fil4"
         id="_209588560" />
      <polygon
         style="fill:#4d4d4d"
         points="179.314,257.756 189.87,257.467 190.094,257.979 190.058,258.05 179.314,257.756 "
         class="fil4"
         id="_209560832" />
      <polygon
         style="fill:#4d4d4d"
         points="179.314,258.66 189.896,258.37 189.607,258.942 179.314,258.66 "
         class="fil4"
         id="_209558944" />
      <polygon
         style="fill:#4d4d4d"
         points="179.314,259.565 189.432,259.288 189.155,259.834 179.314,259.565 "
         class="fil4"
         id="_209559488" />
      <polygon
         style="fill:#4d4d4d"
         points="179.314,260.469 188.968,260.205 188.704,260.727 179.314,260.469 "
         class="fil4"
         id="_209558344" />
      <polygon
         style="fill:#4d4d4d"
         points="179.314,261.374 188.504,261.122 188.253,261.619 179.314,261.374 "
         class="fil4"
         id="_209557016" />
      <polygon
         style="fill:#4d4d4d"
         points="179.314,264.991 185.945,264.81 185.945,265.173 179.314,264.991 "
         class="fil4"
         id="_209557776" />
      <polygon
         style="fill:#4d4d4d"
         points="179.314,264.087 187.02,263.876 187.006,263.89 186.984,263.911 186.965,263.928 186.948,263.942 186.93,263.955 186.913,263.966 186.897,263.977 186.88,263.986 186.863,263.995 186.846,264.002 186.829,264.009 186.812,264.015 186.794,264.02 186.775,264.025 186.756,264.029 186.736,264.032 186.714,264.034 186.692,264.035 185.945,264.051 185.945,264.269 179.314,264.087 "
         class="fil4"
         id="_209553608" />
      <polygon
         style="fill:#4d4d4d"
         points="179.314,263.183 187.576,262.956 187.455,263.196 187.414,263.277 187.378,263.348 187.348,263.403 179.314,263.183 "
         class="fil4"
         id="_209553416" />
      <polygon
         style="fill:#4d4d4d"
         points="179.314,262.278 188.04,262.039 187.801,262.511 179.314,262.278 "
         class="fil4"
         id="_209552080" />
      <path
         style="fill:#4d4d4d"
         d="M 179.613,248.111 L 196.1945,248.111 C 196.9407,248.111 197.5512,248.7215 197.5512,249.4677 L 197.5512,266.0492 C 197.5512,266.7954 196.9407,267.4059 196.1945,267.4059 L 179.613,267.4059 C 178.8668,267.4059 178.2563,266.7954 178.2563,266.0492 L 178.2563,249.4677 C 178.2563,248.7215 178.8668,248.111 179.613,248.111 z M 179.7637,248.4125 L 196.0438,248.4125 C 196.7071,248.4125 197.2497,248.9551 197.2497,249.6184 L 197.2497,265.8985 C 197.2497,266.5618 196.7071,267.1044 196.0438,267.1044 L 179.7637,267.1044 C 179.1004,267.1044 178.5578,266.5618 178.5578,265.8985 L 178.5578,249.6184 C 178.5578,248.9551 179.1004,248.4125 179.7637,248.4125 L 179.7637,248.4125 z"
         class="fil4"
         id="_208969032" />
    </g>
  </g>
</svg>
