<?xml version="1.0" encoding="UTF-8" standalone="no"?>
<!-- Created with Inkscape (http://www.inkscape.org/) -->

<svg
   xmlns:dc="http://purl.org/dc/elements/1.1/"
   xmlns:cc="http://creativecommons.org/ns#"
   xmlns:rdf="http://www.w3.org/1999/02/22-rdf-syntax-ns#"
   xmlns:svg="http://www.w3.org/2000/svg"
   xmlns="http://www.w3.org/2000/svg"
   xmlns:xlink="http://www.w3.org/1999/xlink"
   xmlns:sodipodi="http://sodipodi.sourceforge.net/DTD/sodipodi-0.dtd"
   xmlns:inkscape="http://www.inkscape.org/namespaces/inkscape"
   width="128"
   height="128"
   id="svg2"
   sodipodi:version="0.32"
   inkscape:version="0.48.3.1 r9886"
   version="1.0"
   sodipodi:docname="x2go-mascot.svg"
   inkscape:output_extension="org.inkscape.output.svg.inkscape"
   inkscape:export-xdpi="90"
   inkscape:export-ydpi="90"
   style="display: inline;">
  <defs
     id="defs4">
    <linearGradient
       id="linearGradient3229">
      <stop
         style="stop-color:#707070;stop-opacity:1;"
         offset="0"
         id="stop3231" />
      <stop
         style="stop-color:#707070;stop-opacity:0;"
         offset="1"
         id="stop3233" />
    </linearGradient>
    <linearGradient
       id="linearGradient3189">
      <stop
         style="stop-color:#cccccc;stop-opacity:1;"
         offset="0"
         id="stop3191" />
      <stop
         style="stop-color:#cccccc;stop-opacity:0;"
         offset="1"
         id="stop3193" />
    </linearGradient>
    <linearGradient
       id="linearGradient3707">
      <stop
         style="stop-color:#ffffff;stop-opacity:1;"
         offset="0"
         id="stop3709" />
      <stop
         style="stop-color:#d4d4d4;stop-opacity:1;"
         offset="1"
         id="stop3711" />
    </linearGradient>
    <linearGradient
       inkscape:collect="always"
       id="linearGradient4218">
      <stop
         style="stop-color: rgb(255, 255, 255); stop-opacity: 1;"
         offset="0"
         id="stop4220" />
      <stop
         style="stop-color: rgb(255, 255, 255); stop-opacity: 0;"
         offset="1"
         id="stop4222" />
    </linearGradient>
    <linearGradient
       id="linearGradient4114">
      <stop
         style="stop-color: rgb(238, 130, 59); stop-opacity: 1;"
         offset="0"
         id="stop4116" />
      <stop
         style="stop-color: rgb(150, 73, 22); stop-opacity: 1;"
         offset="1"
         id="stop4118" />
    </linearGradient>
    <linearGradient
       id="linearGradient3995">
      <stop
         style="stop-color: rgb(85, 34, 0); stop-opacity: 1;"
         offset="0"
         id="stop3997" />
      <stop
         style="stop-color: rgb(0, 0, 0); stop-opacity: 1;"
         offset="1"
         id="stop3999" />
    </linearGradient>
    <linearGradient
       id="linearGradient3987">
      <stop
         style="stop-color: rgb(128, 51, 0); stop-opacity: 1;"
         offset="0"
         id="stop3989" />
      <stop
         style="stop-color: rgb(173, 69, 0); stop-opacity: 1;"
         offset="1"
         id="stop3991" />
    </linearGradient>
    <linearGradient
       id="linearGradient3785">
      <stop
         style="stop-color: rgb(0, 0, 214); stop-opacity: 1;"
         offset="0"
         id="stop3787" />
      <stop
         style="stop-color: rgb(0, 0, 128); stop-opacity: 1;"
         offset="1"
         id="stop3789" />
    </linearGradient>
    <linearGradient
       inkscape:collect="always"
       id="linearGradient3578">
      <stop
         style="stop-color: rgb(255, 255, 255); stop-opacity: 1;"
         offset="0"
         id="stop3580" />
      <stop
         style="stop-color: rgb(255, 255, 255); stop-opacity: 0;"
         offset="1"
         id="stop3582" />
    </linearGradient>
    <inkscape:perspective
       sodipodi:type="inkscape:persp3d"
       inkscape:vp_x="0 : 526.18109 : 1"
       inkscape:vp_y="0 : 1000 : 0"
       inkscape:vp_z="744.09448 : 526.18109 : 1"
       inkscape:persp3d-origin="372.04724 : 350.78739 : 1"
       id="perspective10" />
    <inkscape:perspective
       id="perspective2452"
       inkscape:persp3d-origin="372.04724 : 350.78739 : 1"
       inkscape:vp_z="744.09448 : 526.18109 : 1"
       inkscape:vp_y="0 : 1000 : 0"
       inkscape:vp_x="0 : 526.18109 : 1"
       sodipodi:type="inkscape:persp3d" />
    <inkscape:perspective
       id="perspective3439"
       inkscape:persp3d-origin="46.062992 : 30.708661 : 1"
       inkscape:vp_z="92.125984 : 46.062992 : 1"
       inkscape:vp_y="0 : 1000 : 0"
       inkscape:vp_x="0 : 46.062992 : 1"
       sodipodi:type="inkscape:persp3d" />
    <linearGradient
       inkscape:collect="always"
       xlink:href="#linearGradient3578"
       id="linearGradient3586"
       gradientUnits="userSpaceOnUse"
       x1="720"
       y1="400"
       x2="620"
       y2="450" />
    <inkscape:perspective
       id="perspective3860"
       inkscape:persp3d-origin="372.04724 : 350.78739 : 1"
       inkscape:vp_z="744.09448 : 526.18109 : 1"
       inkscape:vp_y="0 : 1000 : 0"
       inkscape:vp_x="0 : 526.18109 : 1"
       sodipodi:type="inkscape:persp3d" />
    <linearGradient
       inkscape:collect="always"
       xlink:href="#linearGradient4218"
       id="linearGradient4224"
       x1="520"
       y1="370"
       x2="520"
       y2="407.5"
       gradientUnits="userSpaceOnUse" />
    <radialGradient
       inkscape:collect="always"
       xlink:href="#linearGradient3785"
       id="radialGradient2500"
       gradientUnits="userSpaceOnUse"
       gradientTransform="matrix(0.236648, 0, 0, 0.2479, -39.8873, -14.9442)"
       cx="435.6713"
       cy="316.81464"
       fx="435.6713"
       fy="316.81464"
       r="205.6713" />
    <radialGradient
       inkscape:collect="always"
       xlink:href="#linearGradient3707"
       id="radialGradient3733"
       gradientUnits="userSpaceOnUse"
       gradientTransform="matrix(1,0,0,0.9028411,23.849812,8.202432)"
       cx="62.499393"
       cy="85.06929"
       fx="62.499393"
       fy="85.06929"
       r="56.472706" />
    <radialGradient
       inkscape:collect="always"
       xlink:href="#linearGradient3707"
       id="radialGradient3195"
       cx="62.204704"
       cy="87.202095"
       fx="62.204704"
       fy="87.202095"
       r="56.972706"
       gradientTransform="matrix(1,0,0,0.9029869,0,6.2049004)"
       gradientUnits="userSpaceOnUse" />
    <radialGradient
       inkscape:collect="always"
       xlink:href="#linearGradient3707"
       id="radialGradient3245"
       cx="68.682442"
       cy="55.617085"
       fx="68.682442"
       fy="55.617085"
       r="54.399834"
       gradientTransform="matrix(1,0,0,0.8915953,0,7.0057749)"
       gradientUnits="userSpaceOnUse" />
    <radialGradient
       inkscape:collect="always"
       xlink:href="#linearGradient3707"
       id="radialGradient3259"
       gradientUnits="userSpaceOnUse"
       gradientTransform="matrix(1.3477029,0,0,0.8915953,-22.799966,7.0057748)"
       cx="65.573128"
       cy="64.626091"
       fx="65.573128"
       fy="64.626091"
       r="54.399834" />
  </defs>
  <sodipodi:namedview
     id="base"
     pagecolor="#ffffff"
     bordercolor="#666666"
     borderopacity="1.0"
     inkscape:pageopacity="0.0"
     inkscape:pageshadow="2"
     inkscape:zoom="3.859375"
     inkscape:cx="50.940891"
     inkscape:cy="61.033965"
     inkscape:document-units="px"
     inkscape:current-layer="layer2"
     showgrid="true"
     objecttolerance="7"
     gridtolerance="7"
     guidetolerance="7"
     showguides="true"
     inkscape:guide-bbox="true"
     inkscape:window-width="1855"
     inkscape:window-height="1056"
     inkscape:window-x="65"
     inkscape:window-y="24"
     inkscape:snap-global="false"
     inkscape:window-maximized="1">
    <inkscape:grid
       type="xygrid"
       id="grid2383"
       visible="true"
       enabled="true"
       dotted="true"
       empspacing="5"
       snapvisiblegridlinesonly="true" />
  </sodipodi:namedview>
  <metadata
     id="metadata7">
    <rdf:RDF>
      <cc:Work
         rdf:about="">
        <dc:format>image/svg+xml</dc:format>
        <dc:type
           rdf:resource="http://purl.org/dc/dcmitype/StillImage" />
        <dc:title>x2go mascot &quot;phoca&quot;</dc:title>
        <dc:date>02.06.2009</dc:date>
        <dc:creator>
          <cc:Agent>
            <dc:title>Heinz-M. Graesing</dc:title>
          </cc:Agent>
        </dc:creator>
        <dc:rights>
          <cc:Agent>
            <dc:title>Heinz-M. Graesing</dc:title>
          </cc:Agent>
        </dc:rights>
        <dc:publisher>
          <cc:Agent>
            <dc:title>obviously-nice</dc:title>
          </cc:Agent>
        </dc:publisher>
        <dc:source>http://www.x2go.org/artwork</dc:source>
        <dc:language>DE</dc:language>
        <dc:subject>
          <rdf:Bag>
            <rdf:li>x2go mascot</rdf:li>
          </rdf:Bag>
        </dc:subject>
        <cc:license
           rdf:resource="http://www.gnu.org/licenses/gpl-2.0.txt" />
      </cc:Work>
    </rdf:RDF>
  </metadata>
  <g
     inkscape:groupmode="layer"
     id="layer2"
     inkscape:label="Seal"
     style="opacity:1;display:inline">
    <path
       style="opacity:1;fill:#ffffff;fill-opacity:1;stroke:#000000;stroke-opacity:1;display:inline"
       d="M 64.463619,13.01415 C 61.034589,13.01415 50.211649,17.080931 47.257629,18.572383 C 44.867089,19.779342 44.555089,19.866569 45.125669,17.150013 C 42.153229,18.482621 31.875255,28.346609 30.088326,31.065065 C 28.287921,33.804021 29.215286,31.294317 29.328555,28.453283 C 27.079812,30.842419 21.351597,41.671846 20.553841,44.908175 C 19.61069,48.734336 19.764193,48.171644 18.674979,45.267482 C 17.417049,48.437067 15.940839,61.099411 15.951947,64.618565 C 15.964454,68.580989 16.286068,67.661065 14.767632,65.936133 C 14.767632,69.063714 14.923811,72.050111 15.226472,74.894112 C 13.234719,75.695093 9.229823,76.919151 8.239029,79.202527 C 9.449754,79.396612 9.228496,79.517 9.044221,79.662338 C 7.03203,81.249356 5.732,83.371169 5.732,85.299208 C 5.732,87.326977 7.417982,89.198548 9.79612,90.705793 C 10.213623,90.970403 10.652457,91.223783 11.107247,91.464809 C 14.152573,93.078746 17.913302,94.138716 20.774918,94.306611 C 22.370133,97.295525 24.285047,99.972271 26.522237,102.32866 C 26.991201,99.541108 27.349787,100.88484 29.14954,103.71249 C 30.747876,106.22369 40.296703,111.5149 43.833309,112.55704 C 43.994209,109.90199 43.490159,110.42651 47.005199,112.74262 C 49.210149,114.1955 60.258649,115.24759 66.492119,114.8988 C 73.132229,114.52726 75.174649,111.12328 73.918719,113.9128 C 77.383769,113.68115 83.040169,112.15546 85.931179,111.0569 C 88.822189,109.95834 91.522099,108.63752 94.005899,107.10473 C 96.807009,109.0169 100.26081,110.14719 103.9945,110.14719 C 103.64614,108.86387 104.84873,109.82935 105.23475,109.9526 C 107.74917,110.75539 112.26975,110.71934 114.84291,110.03199 C 117.32915,109.36786 118.67741,107.73469 118.67741,103.37048 C 118.67741,100.34538 118.25285,96.792615 116.31602,95.115941 C 115.95702,94.805161 115.5147,94.017591 116.49869,93.853618 C 115.02478,91.205997 112.78175,89.207036 109.70531,88.228731 C 111.7228,82.712314 112.53039,76.437428 111.90068,69.486851 C 110.21353,72.561504 109.6434,73.34786 110.72997,69.119631 C 111.62692,65.629272 110.20658,51.262666 108.34629,48.263401 C 108.09139,52.266567 107.26389,51.310316 107.22729,50.016637 C 106.98878,41.585503 100.88484,35.300161 98.789269,33.456005 C 96.202989,31.180018 95.684029,30.308971 98.469209,30.228642 C 96.361649,27.617586 86.248429,21.517255 82.724519,20.088684 C 79.688439,18.857877 81.928569,18.528999 83.448609,17.704812 C 80.582049,16.205765 70.266909,13.859256 65.407399,14.748505 C 62.189669,15.337322 60.975319,14.532587 64.463619,13.01415 z"
       id="path3197"
       sodipodi:nodetypes="cscscscscccssssccscsscsccsssccccscsscscsc" />
    <path
       sodipodi:nodetypes="cscscscscccssssccscsscsccsssccccscsscscsc"
       id="path3209"
       d="M 60.753174,16.123461 C 57.450009,16.123461 48.578989,21.558856 45.733399,22.982079 C 43.430606,24.133824 43.130058,24.217061 43.679694,21.624778 C 40.81636,22.896424 31.692974,32.309166 29.971636,34.903261 C 28.237316,37.516919 29.130641,35.122026 29.239753,32.41096 C 27.073551,34.690801 22.332923,46.320363 21.564449,49.408641 C 20.655917,53.059767 20.803786,52.522817 19.754552,49.751511 C 18.542796,52.776097 17.898099,65.118289 17.908799,68.476453 C 17.920847,72.257609 18.230656,71.379769 16.767956,69.733747 C 16.767956,72.718251 16.918402,73.754265 17.209954,76.468162 C 15.291309,77.232501 11.174307,76.845907 10.219881,79.024825 C 11.386165,79.210031 11.173029,79.324912 10.995518,79.463601 C 9.0571859,80.978018 7.8048745,83.002766 7.8048745,84.842603 C 7.8048745,86.777607 9.4289713,88.563561 11.719818,90.001854 C 12.121996,90.254359 12.544722,90.496148 12.982819,90.726148 C 15.916364,92.266252 19.539052,92.241295 22.295631,92.40151 C 23.832292,95.25369 23.863152,96.512432 26.018225,98.761036 C 26.469975,96.100998 26.815399,97.383257 28.549091,100.08156 C 30.088758,102.47787 39.805306,109.08168 43.212098,110.07614 C 43.367092,107.54256 42.881544,108.04308 46.267562,110.25324 C 48.391577,111.63965 60.330081,113.42094 66.334746,113.08811 C 72.731126,112.73357 76.771451,109.48531 75.561621,112.14722 C 78.899484,111.92616 82.275387,110.47027 85.06028,109.42196 C 87.845174,108.37366 92.000637,106.07682 94.393267,104.61415 C 97.091561,106.43885 98.863933,108.55387 102.46057,108.55387 C 102.125,107.32925 103.28345,108.25057 103.6553,108.36818 C 106.07742,109.13424 110.43207,109.09984 112.91078,108.44394 C 115.30576,107.8102 116.60454,106.25173 116.60454,102.08717 C 116.60454,99.20046 116.19556,95.810223 114.32982,94.210253 C 113.984,93.913689 113.55791,93.162148 114.50579,93.005677 C 113.08598,90.479175 110.40706,90.644534 107.44354,89.710983 C 109.38698,84.446924 110.16493,81.050189 109.55833,74.417579 C 107.93311,77.351575 107.38391,78.101959 108.43059,74.067158 C 109.29462,70.736471 109.48107,54.954215 107.68907,52.092157 C 107.44352,55.912191 105.09174,54.481467 105.05648,53.24697 C 104.82673,45.201533 99.520829,37.064753 97.446404,35.371059 C 92.882182,31.644535 91.864051,29.258679 94.546999,29.182025 C 92.516799,26.690417 81.997464,22.164703 78.602902,20.801484 C 75.678264,19.626984 77.836168,19.31315 79.300414,18.526667 C 76.539073,17.096197 66.34345,16.929906 61.662312,17.778475 C 58.562691,18.340356 57.392915,17.572434 60.753174,16.123461 z"
       style="opacity:1;fill:url(#radialGradient3259);fill-opacity:1;stroke:none;stroke-opacity:1;display:inline" />
    <path
       id="_209961968"
       class="fil4"
       d="M 35,60.405402 C 37.215559,60.770076 39.069961,62.927535 38.533481,64.801141 C 37.997338,66.674495 34.966281,67.562883 33.046155,67.711792 C 31.12574,67.860649 29.234198,66.528175 29.593283,64.34653 C 29.952376,62.164879 32.784156,60.040689 35,60.405402 L 35,60.405402 z"
       style="fill:#666666;fill-rule:evenodd" />
    <path
       id="_209569544"
       class="fil4"
       d="M 57.3829,63 C 54.712393,62.560447 51.240326,63.914937 51.129045,66.261392 C 51.017418,68.607783 54.134997,70.792717 56.269792,71.704519 C 58.404885,72.616732 61.079384,71.825761 61.51221,69.19612 C 61.944978,66.566842 60.053759,63.439613 57.3829,63 L 57.3829,63 z"
       style="fill:#666666;fill-rule:evenodd" />
    <path
       id="_209560512"
       class="fil4"
       d="M 43.906967,73.59856 C 47.880743,74.039362 51.453862,72.807303 51.206262,75.039313 C 50.997379,76.922401 47.129092,78.828503 43.898445,79.277777 C 43.300391,79.361047 43.189984,84.649977 42.569105,84.581103 C 41.948227,84.51223 42.570309,79.63439 42.021734,79.385309 C 39.059723,78.038362 36.671322,74.38684 36.880256,72.503372 C 37.127849,70.271376 39.933199,73.15775 43.906967,73.59856 L 43.906967,73.59856 z"
       style="fill:#666666;fill-rule:evenodd"
       sodipodi:nodetypes="cssscscc" />
    <path
       id="_209437640"
       class="fil4"
       d="M 42.866541,85.62819 C 45.336917,86.12229 48.372375,90.9041 50.336778,91.36214 C 54.086708,92.23608 56.914074,88.46534 56.88042,88.71384 C 56.846758,88.96234 53.524333,93.00615 49.741451,92.37348 C 47.76012,92.04234 44.927379,87.45388 42.457003,86.95979 C 39.53744,86.37586 36.853114,89.03607 34.686695,88.51479 C 31.520586,87.75225 30.25277,84.043322 30.283241,83.818371 C 30.312116,83.605183 31.656587,87.1904 34.575664,87.64461 C 36.845831,87.99757 39.722523,84.999368 42.866541,85.62819 L 42.866541,85.62819 z"
       style="fill:#666666;fill-rule:evenodd" />
    <path
       style="opacity:1;fill:#f9f9f9;fill-opacity:1;stroke:none;stroke-opacity:1;display:inline"
       d="M 60.753174,16.123461 C 57.450009,16.123461 48.578989,21.558856 45.733399,22.982079 C 43.430606,24.133824 43.130058,24.217061 43.679694,21.624778 C 40.81636,22.896424 31.692974,32.309166 29.971636,34.903261 C 28.237316,37.516919 29.130641,35.122026 29.239753,32.41096 C 27.073551,34.690801 22.332923,46.320363 21.564449,49.408641 C 31.104577,33.143729 35.135676,30.580514 40.090673,27.748951 C 39.095435,30.383313 40.035102,36.14551 40.531679,35.319307 C 44.790524,28.233453 53.926565,22.160249 58.911677,21.01642 C 57.23885,24.433968 56.553329,29.189677 57.630773,28.984797 C 60.845866,28.373435 71.712671,21.635697 74.659007,21.675129 C 73.657435,23.368744 70.870698,29.336706 72.577125,28.609003 C 80.90884,22.836339 87.521232,29.030462 94.546999,29.182025 C 92.516799,26.690417 81.997464,22.164703 78.602902,20.801484 C 75.678264,19.626984 77.836168,19.31315 79.300414,18.526667 C 76.539073,17.096197 66.34345,16.929906 61.662312,17.778475 C 58.562691,18.340356 57.392915,17.572434 60.753174,16.123461 z"
       id="path3247"
       sodipodi:nodetypes="cscscccscscccscsc" />
    <path
       style="opacity:1;fill:#b3b3b3;fill-opacity:1;stroke:none;stroke-opacity:1;display:inline"
       d="M 28.549091,100.08156 C 30.088758,102.47787 39.805306,109.08168 43.212098,110.07614 C 43.367092,107.54256 42.881544,108.04308 46.267562,110.25324 C 48.391577,111.63965 60.330081,113.42094 66.334746,113.08811 C 72.731126,112.73357 76.771451,109.48531 75.561621,112.14722 C 78.899484,111.92616 82.275387,110.47027 85.06028,109.42196 C 87.845174,108.37366 92.000637,106.07682 94.393267,104.61415 L 77.442116,102.14529 C 72.973009,112.76768 59.06706,105.20081 55.612826,105.35689 C 62.156324,117.82017 31.219518,101.62293 28.549091,100.08156 z"
       id="path3251"
       sodipodi:nodetypes="ccsscscccc" />
    <path
       sodipodi:nodetypes="cccccsc"
       id="path3255"
       d="M 116.60454,102.08717 C 116.60454,99.20046 116.19556,95.810223 114.32982,94.210253 C 113.984,93.913689 113.55791,93.162148 114.50579,93.005677 C 113.08598,90.479175 110.40706,90.644534 107.44354,89.710983 C 109.12158,91.072187 112.16484,92.017003 112.05045,97.068336 C 113.08614,96.137398 113.2537,95.125759 113.70446,95.728596 C 115.02485,97.494422 116.06149,99.544004 116.60454,102.08717 z"
       style="opacity:1;fill:#ffffff;fill-opacity:1;stroke:none;stroke-opacity:1;display:inline" />
    <path
       style="opacity:1;fill:#b3b3b3;fill-opacity:1;stroke:none;stroke-opacity:1;display:inline"
       d="M 94.393267,104.61415 C 97.091561,106.43885 98.863933,108.55387 102.46057,108.55387 C 102.125,107.32925 103.28345,108.25057 103.6553,108.36818 C 106.07742,109.13424 110.43207,109.09984 112.91078,108.44394 C 115.30576,107.8102 116.60454,106.25173 116.60454,102.08717 C 109.61737,107.9285 102.06434,106.97957 94.393267,104.61415 z"
       id="path3253"
       sodipodi:nodetypes="ccsscc" />
    <path
       style="opacity:1;fill:#b3b3b3;fill-opacity:1;stroke:none;stroke-opacity:1;display:inline"
       d="M 7.8048745,84.842603 C 7.8048745,86.777607 9.4289713,88.563561 11.719818,90.001854 C 12.121996,90.254359 12.544722,90.496148 12.982819,90.726148 C 15.916364,92.266252 19.539052,92.241295 22.295631,92.40151 C 17.863703,90.811298 13.390614,89.125042 7.8048745,84.842603 z"
       id="path3257"
       sodipodi:nodetypes="csscc" />
  </g>
  <g
     inkscape:groupmode="layer"
     id="layer1"
     inkscape:label="Fell"
     style="display:inline">
    <path
       style="opacity:1;fill:none;fill-opacity:1;stroke:#707070;stroke-opacity:1;display:inline"
       d="M 64.464024,13.014122 C 61.035002,13.014122 50.212063,17.080903 47.25804,18.572355 C 44.867494,19.779314 44.555498,19.866541 45.126075,17.149985 C 42.153634,18.482593 31.875664,28.346581 30.088735,31.065037 C 28.28833,33.803993 29.215695,31.294289 29.328964,28.453255 C 27.080221,30.842391 21.352006,41.671818 20.55425,44.908147 C 19.611099,48.734308 19.764602,48.171616 18.675388,45.267454 C 17.417458,48.437039 15.941248,61.099383 15.952356,64.618537 C 15.964863,68.580961 16.286477,67.661037 14.768041,65.936105 C 14.768041,69.063686 14.92422,72.050083 15.226881,74.894084 C 13.235128,75.695065 9.230232,76.919123 8.2394382,79.202499 C 9.4501639,79.396584 9.2289059,79.516972 9.04463,79.66231 C 7.0324391,81.249328 5.7324099,83.371141 5.7324099,85.29918 C 5.7324099,87.326949 7.4183919,89.19852 9.7965299,90.705765 C 10.214032,90.970375 10.652866,91.223755 11.107656,91.464781 C 14.152982,93.078718 17.913711,94.138688 20.775327,94.306583 C 22.370542,97.295497 24.285456,99.972243 26.522646,102.32863 C 26.99161,99.54108 27.350196,100.88481 29.149949,103.71246 C 30.748285,106.22366 40.297112,111.51487 43.833715,112.55701 C 43.994614,109.90196 43.490564,110.42648 47.005606,112.74259 C 49.210557,114.19547 60.259055,115.24756 66.492527,114.89877 C 73.132642,114.52723 75.175062,111.12325 73.91913,113.91277 C 77.384175,113.68112 83.040576,112.15543 85.931585,111.05687 C 88.822594,109.95831 91.522508,108.63749 94.00631,107.1047 C 96.807421,109.01687 100.26122,110.14716 103.99491,110.14716 C 103.64655,108.86384 104.84914,109.82932 105.23516,109.95257 C 107.74958,110.75536 112.27016,110.71931 114.84332,110.03196 C 117.32956,109.36783 118.67782,107.73466 118.67782,103.37045 C 118.67782,100.34535 118.25326,96.792587 116.31643,95.115913 C 115.95743,94.805133 115.51511,94.017563 116.4991,93.85359 C 115.02519,91.205969 112.78216,89.207008 109.70572,88.228703 C 111.72321,82.712286 112.5308,76.4374 111.90109,69.486823 C 110.21394,72.561476 109.64381,73.347832 110.73038,69.119603 C 111.62733,65.629244 110.20699,51.262638 108.3467,48.263373 C 108.0918,52.266539 107.2643,51.310288 107.2277,50.016609 C 106.98919,41.585475 100.88525,35.300133 98.789675,33.455977 C 96.203399,31.17999 95.68444,30.308943 98.469623,30.228614 C 96.362061,27.617558 86.248841,21.517227 82.724927,20.088656 C 79.688846,18.857849 81.928975,18.528971 83.449015,17.704784 C 80.582461,16.205737 70.267316,13.859228 65.40781,14.748477 C 62.190083,15.337294 60.975724,14.532559 64.464024,13.014122 z"
       id="path3735"
       sodipodi:nodetypes="cscscscscccssssccscsscsccsssccccscsscscsc" />
  </g>
</svg>
