<?xml version="1.0" encoding="UTF-8" standalone="no"?>
<svg
   xmlns:dc="http://purl.org/dc/elements/1.1/"
   xmlns:cc="http://creativecommons.org/ns#"
   xmlns:rdf="http://www.w3.org/1999/02/22-rdf-syntax-ns#"
   xmlns:svg="http://www.w3.org/2000/svg"
   xmlns="http://www.w3.org/2000/svg"
   xmlns:xlink="http://www.w3.org/1999/xlink"
   xmlns:sodipodi="http://sodipodi.sourceforge.net/DTD/sodipodi-0.dtd"
   xmlns:inkscape="http://www.inkscape.org/namespaces/inkscape"
   id="svg2"
   sodipodi:version="0.32"
   inkscape:version="0.48.3.1 r9886"
   width="128"
   height="128"
   sodipodi:docname="x2go-logo-colored.svg"
   inkscape:output_extension="org.inkscape.output.svg.inkscape"
   version="1.0"
   inkscape:export-xdpi="90"
   inkscape:export-ydpi="90">
  <metadata
     id="metadata87">
    <rdf:RDF>
      <cc:Work
         rdf:about="">
        <dc:format>image/svg+xml</dc:format>
        <dc:type
           rdf:resource="http://purl.org/dc/dcmitype/StillImage" />
        <dc:title></dc:title>
        <dc:date>12.06.2007</dc:date>
        <dc:creator>
          <cc:Agent>
            <dc:title>Heinz-M. Graesing</dc:title>
          </cc:Agent>
        </dc:creator>
        <dc:rights>
          <cc:Agent>
            <dc:title>obviously-nice</dc:title>
          </cc:Agent>
        </dc:rights>
        <dc:publisher>
          <cc:Agent>
            <dc:title>obviously-nice</dc:title>
          </cc:Agent>
        </dc:publisher>
        <dc:source>http://www.x2go.org/artwork</dc:source>
        <dc:language>DE</dc:language>
        <dc:subject>
          <rdf:Bag>
            <rdf:li>Logo</rdf:li>
          </rdf:Bag>
        </dc:subject>
        <cc:license
           rdf:resource="http://www.gnu.org/licenses/gpl-2.0.txt" />
      </cc:Work>
      <cc:License
         rdf:about="http://creativecommons.org/licenses/by-nd/3.0/">
        <cc:permits
           rdf:resource="http://creativecommons.org/ns#Reproduction" />
        <cc:permits
           rdf:resource="http://creativecommons.org/ns#Distribution" />
        <cc:requires
           rdf:resource="http://creativecommons.org/ns#Notice" />
        <cc:requires
           rdf:resource="http://creativecommons.org/ns#Attribution" />
      </cc:License>
    </rdf:RDF>
  </metadata>
  <defs
     id="defs85">
    <linearGradient
       inkscape:collect="always"
       id="linearGradient4204">
      <stop
         style="stop-color:#ffffff;stop-opacity:1;"
         offset="0"
         id="stop4206" />
      <stop
         style="stop-color:#ffffff;stop-opacity:0;"
         offset="1"
         id="stop4208" />
    </linearGradient>
    <linearGradient
       id="linearGradient4186">
      <stop
         style="stop-color:#ffffff;stop-opacity:1;"
         offset="0"
         id="stop4188" />
      <stop
         style="stop-color:#ffffff;stop-opacity:0;"
         offset="1"
         id="stop4190" />
    </linearGradient>
    <inkscape:perspective
       sodipodi:type="inkscape:persp3d"
       inkscape:vp_x="0 : 64 : 1"
       inkscape:vp_y="0 : 1000 : 0"
       inkscape:vp_z="128 : 64 : 1"
       inkscape:persp3d-origin="64 : 42.666667 : 1"
       id="perspective46" />
    <radialGradient
       inkscape:collect="always"
       xlink:href="#linearGradient4472"
       id="radialGradient4478"
       cx="44.602337"
       cy="44.941875"
       fx="44.602337"
       fy="44.941875"
       r="35.79092"
       gradientTransform="matrix(1,0,0,1.15885,67.847226,-18.98329)"
       gradientUnits="userSpaceOnUse" />
    <linearGradient
       id="linearGradient4472">
      <stop
         style="stop-color: rgb(23, 118, 255); stop-opacity: 1;"
         offset="0"
         id="stop4474" />
      <stop
         id="stop4564"
         offset="1"
         style="stop-color: rgb(255, 255, 255); stop-opacity: 1;" />
    </linearGradient>
    <radialGradient
       r="35.79092"
       fy="44.941875"
       fx="44.602337"
       cy="44.941875"
       cx="44.602337"
       gradientTransform="matrix(1.5430561,0,0,1.7881705,-4.7786,-14.363356)"
       gradientUnits="userSpaceOnUse"
       id="radialGradient3195-8"
       xlink:href="#linearGradient4472-3"
       inkscape:collect="always" />
    <linearGradient
       id="linearGradient4472-3">
      <stop
         style="stop-color: rgb(23, 118, 255); stop-opacity: 1;"
         offset="0"
         id="stop4474-6" />
      <stop
         id="stop4564-6"
         offset="1"
         style="stop-color: rgb(255, 255, 255); stop-opacity: 1;" />
    </linearGradient>
    <filter
       inkscape:collect="always"
       id="filter4002">
      <feGaussianBlur
         inkscape:collect="always"
         stdDeviation="1.0623174"
         id="feGaussianBlur4004" />
    </filter>
    <linearGradient
       inkscape:collect="always"
       xlink:href="#linearGradient4204"
       id="linearGradient4210"
       x1="135"
       y1="38"
       x2="5"
       y2="38"
       gradientUnits="userSpaceOnUse" />
    <filter
       inkscape:collect="always"
       id="filter4227">
      <feGaussianBlur
         inkscape:collect="always"
         stdDeviation="1.28"
         id="feGaussianBlur4229" />
    </filter>
    <radialGradient
       inkscape:collect="always"
       xlink:href="#linearGradient4472-3"
       id="radialGradient4333"
       gradientUnits="userSpaceOnUse"
       cx="63.953125"
       cy="64.046875"
       fx="63.953125"
       fy="64.046875"
       r="62.015625" />
    <linearGradient
       inkscape:collect="always"
       xlink:href="#linearGradient4204"
       id="linearGradient4335"
       gradientUnits="userSpaceOnUse"
       x1="135"
       y1="38"
       x2="5"
       y2="38" />
    <linearGradient
       inkscape:collect="always"
       xlink:href="#linearGradient4204"
       id="linearGradient4337"
       gradientUnits="userSpaceOnUse"
       x1="135"
       y1="38"
       x2="5"
       y2="38" />
    <linearGradient
       inkscape:collect="always"
       xlink:href="#linearGradient4204"
       id="linearGradient4339"
       gradientUnits="userSpaceOnUse"
       x1="135"
       y1="38"
       x2="5"
       y2="38" />
    <linearGradient
       inkscape:collect="always"
       xlink:href="#linearGradient4204"
       id="linearGradient4341"
       gradientUnits="userSpaceOnUse"
       x1="135"
       y1="38"
       x2="5"
       y2="38" />
    <linearGradient
       inkscape:collect="always"
       xlink:href="#linearGradient4204"
       id="linearGradient4343"
       gradientUnits="userSpaceOnUse"
       x1="135"
       y1="38"
       x2="5"
       y2="38" />
    <linearGradient
       inkscape:collect="always"
       xlink:href="#linearGradient4204"
       id="linearGradient4345"
       gradientUnits="userSpaceOnUse"
       x1="135"
       y1="38"
       x2="5"
       y2="38" />
    <linearGradient
       inkscape:collect="always"
       xlink:href="#linearGradient4204"
       id="linearGradient4347"
       gradientUnits="userSpaceOnUse"
       x1="135"
       y1="38"
       x2="5"
       y2="38" />
    <linearGradient
       inkscape:collect="always"
       xlink:href="#linearGradient4204"
       id="linearGradient4349"
       gradientUnits="userSpaceOnUse"
       x1="135"
       y1="38"
       x2="5"
       y2="38" />
    <linearGradient
       inkscape:collect="always"
       xlink:href="#linearGradient4204"
       id="linearGradient4351"
       gradientUnits="userSpaceOnUse"
       x1="135"
       y1="38"
       x2="5"
       y2="38" />
    <linearGradient
       inkscape:collect="always"
       xlink:href="#linearGradient4204"
       id="linearGradient4353"
       gradientUnits="userSpaceOnUse"
       x1="135"
       y1="38"
       x2="5"
       y2="38" />
    <linearGradient
       inkscape:collect="always"
       xlink:href="#linearGradient4204"
       id="linearGradient4355"
       gradientUnits="userSpaceOnUse"
       x1="135"
       y1="38"
       x2="5"
       y2="38" />
    <linearGradient
       inkscape:collect="always"
       xlink:href="#linearGradient4204"
       id="linearGradient4357"
       gradientUnits="userSpaceOnUse"
       x1="135"
       y1="38"
       x2="5"
       y2="38" />
    <linearGradient
       inkscape:collect="always"
       xlink:href="#linearGradient4204"
       id="linearGradient4359"
       gradientUnits="userSpaceOnUse"
       x1="135"
       y1="38"
       x2="5"
       y2="38" />
    <linearGradient
       inkscape:collect="always"
       xlink:href="#linearGradient4204"
       id="linearGradient4361"
       gradientUnits="userSpaceOnUse"
       x1="135"
       y1="38"
       x2="5"
       y2="38" />
    <linearGradient
       inkscape:collect="always"
       xlink:href="#linearGradient4204"
       id="linearGradient4363"
       gradientUnits="userSpaceOnUse"
       x1="135"
       y1="38"
       x2="5"
       y2="38" />
    <linearGradient
       inkscape:collect="always"
       xlink:href="#linearGradient4204"
       id="linearGradient4365"
       gradientUnits="userSpaceOnUse"
       x1="135"
       y1="38"
       x2="5"
       y2="38" />
    <linearGradient
       inkscape:collect="always"
       xlink:href="#linearGradient4204"
       id="linearGradient4367"
       gradientUnits="userSpaceOnUse"
       x1="135"
       y1="38"
       x2="5"
       y2="38" />
    <linearGradient
       inkscape:collect="always"
       xlink:href="#linearGradient4204"
       id="linearGradient4369"
       gradientUnits="userSpaceOnUse"
       x1="135"
       y1="38"
       x2="5"
       y2="38" />
    <linearGradient
       inkscape:collect="always"
       xlink:href="#linearGradient4204"
       id="linearGradient4371"
       gradientUnits="userSpaceOnUse"
       x1="135"
       y1="38"
       x2="5"
       y2="38" />
    <linearGradient
       inkscape:collect="always"
       xlink:href="#linearGradient4204"
       id="linearGradient4373"
       gradientUnits="userSpaceOnUse"
       x1="135"
       y1="38"
       x2="5"
       y2="38" />
    <linearGradient
       inkscape:collect="always"
       xlink:href="#linearGradient4204"
       id="linearGradient4375"
       gradientUnits="userSpaceOnUse"
       x1="135"
       y1="38"
       x2="5"
       y2="38" />
    <linearGradient
       inkscape:collect="always"
       xlink:href="#linearGradient4204"
       id="linearGradient4377"
       gradientUnits="userSpaceOnUse"
       x1="219.81676"
       y1="30.931936"
       x2="-100"
       y2="33" />
  </defs>
  <sodipodi:namedview
     inkscape:window-height="1056"
     inkscape:window-width="1855"
     inkscape:pageshadow="2"
     inkscape:pageopacity="0.0"
     guidetolerance="10.0"
     gridtolerance="10.0"
     objecttolerance="10.0"
     borderopacity="1.0"
     bordercolor="#666666"
     pagecolor="#ffffff"
     id="base"
     showgrid="true"
     inkscape:object-nodes="true"
     inkscape:grid-points="true"
     inkscape:guide-points="true"
     width="128px"
     height="128px"
     inkscape:zoom="7.1015625"
     inkscape:cx="64"
     inkscape:cy="64"
     inkscape:window-x="65"
     inkscape:window-y="24"
     inkscape:current-layer="svg2"
     inkscape:window-maximized="1">
    <inkscape:grid
       id="GridFromPre046Settings"
       type="xygrid"
       originx="0px"
       originy="0px"
       spacingx="1px"
       spacingy="1px"
       color="#0000ff"
       empcolor="#0000ff"
       opacity="0.2"
       empopacity="0.4"
       empspacing="5"
       visible="true"
       enabled="true"
       snapvisiblegridlinesonly="true"
       dotted="true" />
  </sodipodi:namedview>
  <g
     id="g4231"
     transform="matrix(0.96910783,0,0,0.96910783,1.9770991,1.9770992)">
    <path
       style="fill:url(#radialGradient4333);fill-opacity:1;stroke:none"
       d="m 9.9375,2.03125 c -4.3962933,0 -8,3.5724569 -8,7.96875 l 0,108.0625 c 0,4.39629 3.6037067,8 8,8 l 108.0625,0 c 4.3963,0 7.96875,-3.60371 7.96875,-8 l 0,-108.0625 c 0,-4.3962931 -3.57245,-7.96875 -7.96875,-7.96875 z"
       id="path3104"
       inkscape:connector-curvature="0"
       sodipodi:nodetypes="sssssssss" />
    <path
       style="fill:#4d4d4d"
       d="M 9.0087977,0 C 4.0359413,0 0,4.0359413 0,9.0087977 L 0,118.9912 C 0,123.96406 4.0359413,128 9.0087977,128 L 118.9912,128 C 123.96406,128 128,123.96406 128,118.9912 L 128,9.0087977 C 128,4.0359413 123.96406,0 118.9912,0 82.330401,0 45.669599,0 9.0087977,0 z m 0.9384164,2.0332356 c 36.0143369,0 72.0286739,0 108.0430059,0 4.3963,0 7.97654,3.5802463 7.97654,7.9765394 l 0,108.043015 c 0,4.39629 -3.58024,8.00782 -7.97654,8.00782 l -108.0430059,0 c -4.3962933,0 -8.0078202,-3.61153 -8.0078202,-8.00782 l 0,-108.043015 c 0,-4.3962931 3.6115269,-7.9765394 8.0078202,-7.9765394 z"
       id="path3045"
       inkscape:connector-curvature="0"
       sodipodi:nodetypes="cssccssccccssccssc" />
    <g
       style="fill:#000080;stroke:#000000;stroke-opacity:1;filter:url(#filter4002)"
       id="g3920">
      <g
         transform="matrix(1.0009775,0,0,1.0009775,0,-925.3907)"
         id="g3922"
         style="fill:#000080;stroke:#000000;stroke-opacity:1">
        <path
           inkscape:connector-curvature="0"
           style="fill:#000080;stroke:#000000;stroke-opacity:1"
           id="path3924"
           d="m 90,977.626 13.32,-25.776 c 0.936,-2.52 1.368,-4.32 1.368,-5.256 0,-1.512 -0.504,-2.664 -1.44,-3.312 -1.008,-0.72 -2.736,-1.08 -5.184,-1.08 l 0,-2.376 22.104,0 0,2.376 c -3.024,0 -5.184,0.648 -6.696,1.944 -1.512,1.296 -3.6,4.752 -6.48,10.368 l -14.616,28.44 18.432,41.544 c 1.872,3.888 3.528,6.624 4.968,8.136 1.44,1.44 3.168,2.232 5.112,2.232 l 0,2.304 -26.352,0 0,-2.304 c 2.376,0 4.032,-0.288 5.04,-0.936 1.008,-0.576 1.512,-1.584 1.512,-2.88 0,-1.224 -0.72,-3.384 -2.016,-6.552 l -12.96,-29.016 -14.832,29.016 c -1.368,2.448 -2.088,4.464 -2.088,5.976 0,2.952 2.16,4.392 6.48,4.392 l 0,2.304 -19.944,0 0,-2.304 c 1.944,0 3.672,-0.648 5.112,-1.872 1.44,-1.224 2.952,-3.312 4.392,-6.408 L 83.736,990.01 67.248,952.498 c -1.728,-4.032 -3.312,-6.696 -4.824,-8.136 -1.584,-1.44 -3.816,-2.16 -6.696,-2.16 l 0,-2.376 28.296,0 0,2.376 c -4.392,0 -6.624,1.512 -6.624,4.536 0,1.512 0.432,3.24 1.296,5.112 L 90,977.626 z" />
      </g>
      <g
         transform="matrix(1.0009775,0,0,1.0009775,0,-925.3907)"
         id="g3926"
         style="fill:#000080;stroke:#000000;stroke-opacity:1">
        <path
           inkscape:connector-curvature="0"
           style="fill:#000080;stroke:#000000;stroke-opacity:1"
           id="path3928"
           d="m 6.984,940.474 43.992,-1.224 0,2.448 -43.992,-1.224 z" />
      </g>
      <g
         transform="matrix(1.0009775,0,0,1.0009775,0,-925.3907)"
         id="g3930"
         style="fill:#000080;stroke:#000000;stroke-opacity:1">
        <path
           inkscape:connector-curvature="0"
           style="fill:#000080;stroke:#000000;stroke-opacity:1"
           id="path3932"
           d="m 6.984,946.45 43.992,-1.152 0,1.656 5.184,0.072 0.36,0 0.288,0 0.288,0.072 0.288,0 0.288,0.072 0.216,0.072 0.216,0.072 0.216,0.072 0.144,0.072 0.144,0.072 0.144,0.072 0.144,0.072 0.072,0.072 0.144,0.072 0,0.072 0.072,0 -52.2,-1.44 z" />
      </g>
      <g
         transform="matrix(1.0009775,0,0,1.0009775,0,-925.3907)"
         id="g3934"
         style="fill:#000080;stroke:#000000;stroke-opacity:1">
        <path
           inkscape:connector-curvature="0"
           style="fill:#000080;stroke:#000000;stroke-opacity:1"
           id="path3936"
           d="m 6.984,952.498 54.288,-1.512 0.216,0.36 0.288,0.576 0.288,0.576 0.288,0.648 0.288,0.648 0.144,0.216 -55.8,-1.512 z" />
      </g>
      <g
         transform="matrix(1.0009775,0,0,1.0009775,0,-925.3907)"
         id="g3938"
         style="fill:#000080;stroke:#000000;stroke-opacity:1">
        <path
           inkscape:connector-curvature="0"
           style="fill:#000080;stroke:#000000;stroke-opacity:1"
           id="path3940"
           d="m 6.984,958.474 56.952,-1.584 1.44,3.168 -58.392,-1.584 z" />
      </g>
      <g
         transform="matrix(1.0009775,0,0,1.0009775,0,-925.3907)"
         id="g3942"
         style="fill:#000080;stroke:#000000;stroke-opacity:1">
        <path
           inkscape:connector-curvature="0"
           style="fill:#000080;stroke:#000000;stroke-opacity:1"
           id="path3944"
           d="m 6.984,964.45 59.544,-1.584 1.44,3.24 -60.984,-1.656 z" />
      </g>
      <g
         transform="matrix(1.0009775,0,0,1.0009775,0,-925.3907)"
         id="g3946"
         style="fill:#000080;stroke:#000000;stroke-opacity:1">
        <path
           inkscape:connector-curvature="0"
           style="fill:#000080;stroke:#000000;stroke-opacity:1"
           id="path3948"
           d="m 6.984,970.498 62.136,-1.728 1.512,3.456 -63.648,-1.728 z" />
      </g>
      <g
         transform="matrix(1.0009775,0,0,1.0009775,0,-925.3907)"
         id="g3950"
         style="fill:#000080;stroke:#000000;stroke-opacity:1">
        <path
           inkscape:connector-curvature="0"
           style="fill:#000080;stroke:#000000;stroke-opacity:1"
           id="path3952"
           d="m 6.984,976.474 64.728,-1.8 1.584,3.6 -66.312,-1.8 z" />
      </g>
      <g
         transform="matrix(1.0009775,0,0,1.0009775,0,-925.3907)"
         id="g3954"
         style="fill:#000080;stroke:#000000;stroke-opacity:1">
        <path
           inkscape:connector-curvature="0"
           style="fill:#000080;stroke:#000000;stroke-opacity:1"
           id="path3956"
           d="m 6.984,982.45 67.32,-1.8 1.656,3.672 -68.976,-1.872 z" />
      </g>
      <g
         transform="matrix(1.0009775,0,0,1.0009775,0,-925.3907)"
         id="g3958"
         style="fill:#000080;stroke:#000000;stroke-opacity:1">
        <path
           inkscape:connector-curvature="0"
           style="fill:#000080;stroke:#000000;stroke-opacity:1"
           id="path3960"
           d="m 6.984,988.426 69.912,-1.872 1.512,3.312 -0.216,0.504 -71.208,-1.944 z" />
      </g>
      <g
         transform="matrix(1.0009775,0,0,1.0009775,0,-925.3907)"
         id="g3962"
         style="fill:#000080;stroke:#000000;stroke-opacity:1">
        <path
           inkscape:connector-curvature="0"
           style="fill:#000080;stroke:#000000;stroke-opacity:1"
           id="path3964"
           d="m 6.984,994.402 70.128,-1.944 -1.944,3.816 -68.184,-1.872 z" />
      </g>
      <g
         transform="matrix(1.0009775,0,0,1.0009775,0,-925.3907)"
         id="g3966"
         style="fill:#000080;stroke:#000000;stroke-opacity:1">
        <path
           inkscape:connector-curvature="0"
           style="fill:#000080;stroke:#000000;stroke-opacity:1"
           id="path3968"
           d="m 6.984,1000.378 67.032,-1.8 -1.8,3.6 -65.232,-1.8 z" />
      </g>
      <g
         transform="matrix(1.0009775,0,0,1.0009775,0,-925.3907)"
         id="g3970"
         style="fill:#000080;stroke:#000000;stroke-opacity:1">
        <path
           inkscape:connector-curvature="0"
           style="fill:#000080;stroke:#000000;stroke-opacity:1"
           id="path3972"
           d="m 6.984,1006.354 63.936,-1.728 -1.728,3.456 -62.208,-1.728 z" />
      </g>
      <g
         transform="matrix(1.0009775,0,0,1.0009775,0,-925.3907)"
         id="g3974"
         style="fill:#000080;stroke:#000000;stroke-opacity:1">
        <path
           inkscape:connector-curvature="0"
           style="fill:#000080;stroke:#000000;stroke-opacity:1"
           id="path3976"
           d="m 6.984,1012.402 60.912,-1.656 -1.728,3.24 -59.184,-1.584 z" />
      </g>
      <g
         transform="matrix(1.0009775,0,0,1.0009775,0,-925.3907)"
         id="g3978"
         style="fill:#000080;stroke:#000000;stroke-opacity:1">
        <path
           inkscape:connector-curvature="0"
           style="fill:#000080;stroke:#000000;stroke-opacity:1"
           id="path3980"
           d="m 6.984,1036.378 43.992,-1.224 0,2.448 -43.992,-1.224 z" />
      </g>
      <g
         transform="matrix(1.0009775,0,0,1.0009775,0,-925.3907)"
         id="g3982"
         style="fill:#000080;stroke:#000000;stroke-opacity:1">
        <path
           inkscape:connector-curvature="0"
           style="fill:#000080;stroke:#000000;stroke-opacity:1"
           id="path3984"
           d="m 6.984,1030.402 51.12,-1.44 -0.072,0.144 -0.144,0.072 -0.144,0.144 -0.144,0.072 -0.072,0.144 -0.144,0.072 -0.072,0.072 -0.144,0 -0.144,0.072 -0.072,0.072 -0.144,0.072 -0.072,0 -0.144,0.072 -0.144,0 -0.072,0 -0.144,0.072 -0.144,0 -0.144,0 -4.968,0.072 0,1.44 -43.992,-1.152 z" />
      </g>
      <g
         transform="matrix(1.0009775,0,0,1.0009775,0,-925.3907)"
         id="g3986"
         style="fill:#000080;stroke:#000000;stroke-opacity:1">
        <path
           inkscape:connector-curvature="0"
           style="fill:#000080;stroke:#000000;stroke-opacity:1"
           id="path3988"
           d="m 6.984,1024.354 54.792,-1.44 -0.792,1.584 -0.288,0.504 -0.216,0.504 -0.216,0.36 -53.28,-1.512 z" />
      </g>
      <g
         transform="matrix(1.0009775,0,0,1.0009775,0,-925.3907)"
         id="g3990"
         style="fill:#000080;stroke:#000000;stroke-opacity:1">
        <path
           inkscape:connector-curvature="0"
           style="fill:#000080;stroke:#000000;stroke-opacity:1"
           id="path3992"
           d="m 6.984,1018.378 57.816,-1.584 -1.512,3.096 -56.304,-1.512 z" />
      </g>
    </g>
    <g
       id="g3882">
      <g
         style="fill:#4d4d4d"
         id="g4"
         transform="matrix(1.0009775,0,0,1.0009775,0,-925.3907)">
        <path
           d="m 90,977.626 13.32,-25.776 c 0.936,-2.52 1.368,-4.32 1.368,-5.256 0,-1.512 -0.504,-2.664 -1.44,-3.312 -1.008,-0.72 -2.736,-1.08 -5.184,-1.08 l 0,-2.376 22.104,0 0,2.376 c -3.024,0 -5.184,0.648 -6.696,1.944 -1.512,1.296 -3.6,4.752 -6.48,10.368 l -14.616,28.44 18.432,41.544 c 1.872,3.888 3.528,6.624 4.968,8.136 1.44,1.44 3.168,2.232 5.112,2.232 l 0,2.304 -26.352,0 0,-2.304 c 2.376,0 4.032,-0.288 5.04,-0.936 1.008,-0.576 1.512,-1.584 1.512,-2.88 0,-1.224 -0.72,-3.384 -2.016,-6.552 l -12.96,-29.016 -14.832,29.016 c -1.368,2.448 -2.088,4.464 -2.088,5.976 0,2.952 2.16,4.392 6.48,4.392 l 0,2.304 -19.944,0 0,-2.304 c 1.944,0 3.672,-0.648 5.112,-1.872 1.44,-1.224 2.952,-3.312 4.392,-6.408 L 83.736,990.01 67.248,952.498 c -1.728,-4.032 -3.312,-6.696 -4.824,-8.136 -1.584,-1.44 -3.816,-2.16 -6.696,-2.16 l 0,-2.376 28.296,0 0,2.376 c -4.392,0 -6.624,1.512 -6.624,4.536 0,1.512 0.432,3.24 1.296,5.112 L 90,977.626 z"
           id="path6"
           style="fill:#4d4d4d"
           inkscape:connector-curvature="0" />
      </g>
      <g
         style="fill:#4d4d4d"
         id="g8"
         transform="matrix(1.0009775,0,0,1.0009775,0,-925.3907)">
        <path
           d="m 6.984,940.474 43.992,-1.224 0,2.448 -43.992,-1.224 z"
           id="path10"
           style="fill:#4d4d4d"
           inkscape:connector-curvature="0" />
      </g>
      <g
         style="fill:#4d4d4d"
         id="g12"
         transform="matrix(1.0009775,0,0,1.0009775,0,-925.3907)">
        <path
           d="m 6.984,946.45 43.992,-1.152 0,1.656 5.184,0.072 0.36,0 0.288,0 0.288,0.072 0.288,0 0.288,0.072 0.216,0.072 0.216,0.072 0.216,0.072 0.144,0.072 0.144,0.072 0.144,0.072 0.144,0.072 0.072,0.072 0.144,0.072 0,0.072 0.072,0 -52.2,-1.44 z"
           id="path14"
           style="fill:#4d4d4d"
           inkscape:connector-curvature="0" />
      </g>
      <g
         style="fill:#4d4d4d"
         id="g16"
         transform="matrix(1.0009775,0,0,1.0009775,0,-925.3907)">
        <path
           d="m 6.984,952.498 54.288,-1.512 0.216,0.36 0.288,0.576 0.288,0.576 0.288,0.648 0.288,0.648 0.144,0.216 -55.8,-1.512 z"
           id="path18"
           style="fill:#4d4d4d"
           inkscape:connector-curvature="0" />
      </g>
      <g
         style="fill:#4d4d4d"
         id="g20"
         transform="matrix(1.0009775,0,0,1.0009775,0,-925.3907)">
        <path
           d="m 6.984,958.474 56.952,-1.584 1.44,3.168 -58.392,-1.584 z"
           id="path22"
           style="fill:#4d4d4d"
           inkscape:connector-curvature="0" />
      </g>
      <g
         style="fill:#4d4d4d"
         id="g24"
         transform="matrix(1.0009775,0,0,1.0009775,0,-925.3907)">
        <path
           d="m 6.984,964.45 59.544,-1.584 1.44,3.24 -60.984,-1.656 z"
           id="path26"
           style="fill:#4d4d4d"
           inkscape:connector-curvature="0" />
      </g>
      <g
         style="fill:#4d4d4d"
         id="g28"
         transform="matrix(1.0009775,0,0,1.0009775,0,-925.3907)">
        <path
           d="m 6.984,970.498 62.136,-1.728 1.512,3.456 -63.648,-1.728 z"
           id="path30"
           style="fill:#4d4d4d"
           inkscape:connector-curvature="0" />
      </g>
      <g
         style="fill:#4d4d4d"
         id="g32"
         transform="matrix(1.0009775,0,0,1.0009775,0,-925.3907)">
        <path
           d="m 6.984,976.474 64.728,-1.8 1.584,3.6 -66.312,-1.8 z"
           id="path34"
           style="fill:#4d4d4d"
           inkscape:connector-curvature="0" />
      </g>
      <g
         style="fill:#4d4d4d"
         id="g36"
         transform="matrix(1.0009775,0,0,1.0009775,0,-925.3907)">
        <path
           d="m 6.984,982.45 67.32,-1.8 1.656,3.672 -68.976,-1.872 z"
           id="path38"
           style="fill:#4d4d4d"
           inkscape:connector-curvature="0" />
      </g>
      <g
         style="fill:#4d4d4d"
         id="g40"
         transform="matrix(1.0009775,0,0,1.0009775,0,-925.3907)">
        <path
           d="m 6.984,988.426 69.912,-1.872 1.512,3.312 -0.216,0.504 -71.208,-1.944 z"
           id="path42"
           style="fill:#4d4d4d"
           inkscape:connector-curvature="0" />
      </g>
      <g
         style="fill:#4d4d4d"
         id="g44"
         transform="matrix(1.0009775,0,0,1.0009775,0,-925.3907)">
        <path
           d="m 6.984,994.402 70.128,-1.944 -1.944,3.816 -68.184,-1.872 z"
           id="path46"
           style="fill:#4d4d4d"
           inkscape:connector-curvature="0" />
      </g>
      <g
         style="fill:#4d4d4d"
         id="g48"
         transform="matrix(1.0009775,0,0,1.0009775,0,-925.3907)">
        <path
           d="m 6.984,1000.378 67.032,-1.8 -1.8,3.6 -65.232,-1.8 z"
           id="path50"
           style="fill:#4d4d4d"
           inkscape:connector-curvature="0" />
      </g>
      <g
         style="fill:#4d4d4d"
         id="g52"
         transform="matrix(1.0009775,0,0,1.0009775,0,-925.3907)">
        <path
           d="m 6.984,1006.354 63.936,-1.728 -1.728,3.456 -62.208,-1.728 z"
           id="path54"
           style="fill:#4d4d4d"
           inkscape:connector-curvature="0" />
      </g>
      <g
         style="fill:#4d4d4d"
         id="g56"
         transform="matrix(1.0009775,0,0,1.0009775,0,-925.3907)">
        <path
           d="m 6.984,1012.402 60.912,-1.656 -1.728,3.24 -59.184,-1.584 z"
           id="path58"
           style="fill:#4d4d4d"
           inkscape:connector-curvature="0" />
      </g>
      <g
         style="fill:#4d4d4d"
         id="g60"
         transform="matrix(1.0009775,0,0,1.0009775,0,-925.3907)">
        <path
           d="m 6.984,1036.378 43.992,-1.224 0,2.448 -43.992,-1.224 z"
           id="path62"
           style="fill:#4d4d4d"
           inkscape:connector-curvature="0" />
      </g>
      <g
         style="fill:#4d4d4d"
         id="g64"
         transform="matrix(1.0009775,0,0,1.0009775,0,-925.3907)">
        <path
           d="m 6.984,1030.402 51.12,-1.44 -0.072,0.144 -0.144,0.072 -0.144,0.144 -0.144,0.072 -0.072,0.144 -0.144,0.072 -0.072,0.072 -0.144,0 -0.144,0.072 -0.072,0.072 -0.144,0.072 -0.072,0 -0.144,0.072 -0.144,0 -0.072,0 -0.144,0.072 -0.144,0 -0.144,0 -4.968,0.072 0,1.44 -43.992,-1.152 z"
           id="path66"
           style="fill:#4d4d4d"
           inkscape:connector-curvature="0" />
      </g>
      <g
         style="fill:#4d4d4d"
         id="g68"
         transform="matrix(1.0009775,0,0,1.0009775,0,-925.3907)">
        <path
           d="m 6.984,1024.354 54.792,-1.44 -0.792,1.584 -0.288,0.504 -0.216,0.504 -0.216,0.36 -53.28,-1.512 z"
           id="path70"
           style="fill:#4d4d4d"
           inkscape:connector-curvature="0" />
      </g>
      <g
         style="fill:#4d4d4d"
         id="g72"
         transform="matrix(1.0009775,0,0,1.0009775,0,-925.3907)">
        <path
           d="m 6.984,1018.378 57.816,-1.584 -1.512,3.096 -56.304,-1.512 z"
           id="path74"
           style="fill:#4d4d4d"
           inkscape:connector-curvature="0" />
      </g>
    </g>
    <path
       style="fill:#162d50;filter:url(#filter4227)"
       d="M 9.0087977,0 C 4.0359413,0 0,4.0359413 0,9.0087977 L 0,118.9912 C 0,123.96406 4.0359413,128 9.0087977,128 L 118.9912,128 C 123.96406,128 128,123.96406 128,118.9912 L 128,9.0087977 C 128,4.0359413 123.96406,0 118.9912,0 82.330401,0 45.669599,0 9.0087977,0 z m 0.9384164,2.0332356 c 36.0143369,0 72.0286739,0 108.0430059,0 4.3963,0 7.97654,3.5802463 7.97654,7.9765394 l 0,108.043015 c 0,4.39629 -3.58024,8.00782 -7.97654,8.00782 l -108.0430059,0 c -4.3962933,0 -8.0078202,-3.61153 -8.0078202,-8.00782 l 0,-108.043015 c 0,-4.3962931 3.6115269,-7.9765394 8.0078202,-7.9765394 z"
       id="path4225"
       inkscape:connector-curvature="0"
       sodipodi:nodetypes="cssccssccccssccssc" />
    <path
       sodipodi:nodetypes="cssccssccccssccssc"
       inkscape:connector-curvature="0"
       id="path78"
       d="M 9.0087977,0 C 4.0359413,0 0,4.0359413 0,9.0087977 L 0,118.9912 C 0,123.96406 4.0359413,128 9.0087977,128 L 118.9912,128 C 123.96406,128 128,123.96406 128,118.9912 L 128,9.0087977 C 128,4.0359413 123.96406,0 118.9912,0 82.330401,0 45.669599,0 9.0087977,0 z m 0.9384164,2.0332356 c 36.0143369,0 72.0286739,0 108.0430059,0 4.3963,0 7.97654,3.5802463 7.97654,7.9765394 l 0,108.043015 c 0,4.39629 -3.58024,8.00782 -7.97654,8.00782 l -108.0430059,0 c -4.3962933,0 -8.0078202,-3.61153 -8.0078202,-8.00782 l 0,-108.043015 c 0,-4.3962931 3.6115269,-7.9765394 8.0078202,-7.9765394 z"
       style="fill:#4d4d4d" />
    <g
       style="fill:url(#linearGradient4375);fill-opacity:1"
       id="g4116">
      <g
         transform="matrix(1.0009775,0,0,1.0009775,0,-925.3907)"
         id="g4008"
         style="fill:url(#linearGradient4337);fill-opacity:1">
        <path
           inkscape:connector-curvature="0"
           style="fill:url(#linearGradient4335);fill-opacity:1"
           id="path4010"
           d="m 90,977.626 13.32,-25.776 c 0.936,-2.52 1.368,-4.32 1.368,-5.256 0,-1.512 -0.504,-2.664 -1.44,-3.312 -1.008,-0.72 -2.736,-1.08 -5.184,-1.08 l 0,-2.376 22.104,0 0,2.376 c -3.024,0 -5.184,0.648 -6.696,1.944 -1.512,1.296 -3.6,4.752 -6.48,10.368 l -14.616,28.44 3.119784,7.0317 L 83.736,990.01 67.248,952.498 c -1.728,-4.032 -3.312,-6.696 -4.824,-8.136 -1.584,-1.44 -3.816,-2.16 -6.696,-2.16 l 0,-2.376 28.296,0 0,2.376 c -4.392,0 -6.624,1.512 -6.624,4.536 0,1.512 0.432,3.24 1.296,5.112 z"
           sodipodi:nodetypes="ccscccccsccccccccccscc" />
      </g>
      <g
         transform="matrix(1.0009775,0,0,1.0009775,0,-925.3907)"
         id="g4012"
         style="fill:url(#linearGradient4341);fill-opacity:1">
        <path
           inkscape:connector-curvature="0"
           style="fill:url(#linearGradient4339);fill-opacity:1"
           id="path4014"
           d="m 6.984,940.474 43.992,-1.224 0,2.448 -43.992,-1.224 z" />
      </g>
      <g
         transform="matrix(1.0009775,0,0,1.0009775,0,-925.3907)"
         id="g4016"
         style="fill:url(#linearGradient4345);fill-opacity:1">
        <path
           inkscape:connector-curvature="0"
           style="fill:url(#linearGradient4343);fill-opacity:1"
           id="path4018"
           d="m 6.984,946.45 43.992,-1.152 0,1.656 5.184,0.072 0.36,0 0.288,0 0.288,0.072 0.288,0 0.288,0.072 0.216,0.072 0.216,0.072 0.216,0.072 0.144,0.072 0.144,0.072 0.144,0.072 0.144,0.072 0.072,0.072 0.144,0.072 0,0.072 0.072,0 -52.2,-1.44 z" />
      </g>
      <g
         transform="matrix(1.0009775,0,0,1.0009775,0,-925.3907)"
         id="g4020"
         style="fill:url(#linearGradient4349);fill-opacity:1">
        <path
           inkscape:connector-curvature="0"
           style="fill:url(#linearGradient4347);fill-opacity:1"
           id="path4022"
           d="m 6.984,952.498 54.288,-1.512 0.216,0.36 0.288,0.576 0.288,0.576 0.288,0.648 0.288,0.648 0.144,0.216 -55.8,-1.512 z" />
      </g>
      <g
         transform="matrix(1.0009775,0,0,1.0009775,0,-925.3907)"
         id="g4024"
         style="fill:url(#linearGradient4353);fill-opacity:1">
        <path
           inkscape:connector-curvature="0"
           style="fill:url(#linearGradient4351);fill-opacity:1"
           id="path4026"
           d="m 6.984,958.474 56.952,-1.584 1.44,3.168 -58.392,-1.584 z" />
      </g>
      <g
         transform="matrix(1.0009775,0,0,1.0009775,0,-925.3907)"
         id="g4028"
         style="fill:url(#linearGradient4357);fill-opacity:1">
        <path
           inkscape:connector-curvature="0"
           style="fill:url(#linearGradient4355);fill-opacity:1"
           id="path4030"
           d="m 6.984,964.45 59.544,-1.584 1.44,3.24 -60.984,-1.656 z" />
      </g>
      <g
         transform="matrix(1.0009775,0,0,1.0009775,0,-925.3907)"
         id="g4032"
         style="fill:url(#linearGradient4361);fill-opacity:1">
        <path
           inkscape:connector-curvature="0"
           style="fill:url(#linearGradient4359);fill-opacity:1"
           id="path4034"
           d="m 6.984,970.498 62.136,-1.728 1.512,3.456 -63.648,-1.728 z" />
      </g>
      <g
         transform="matrix(1.0009775,0,0,1.0009775,0,-925.3907)"
         id="g4036"
         style="fill:url(#linearGradient4365);fill-opacity:1">
        <path
           inkscape:connector-curvature="0"
           style="fill:url(#linearGradient4363);fill-opacity:1"
           id="path4038"
           d="m 6.984,976.474 64.728,-1.8 1.584,3.6 -66.312,-1.8 z" />
      </g>
      <g
         transform="matrix(1.0009775,0,0,1.0009775,0,-925.3907)"
         id="g4040"
         style="fill:url(#linearGradient4369);fill-opacity:1">
        <path
           inkscape:connector-curvature="0"
           style="fill:url(#linearGradient4367);fill-opacity:1"
           id="path4042"
           d="m 6.984,982.45 67.32,-1.8 1.656,3.672 -68.976,-1.872 z" />
      </g>
      <g
         transform="matrix(1.0009775,0,0,1.0009775,0,-925.3907)"
         id="g4044"
         style="fill:url(#linearGradient4373);fill-opacity:1">
        <path
           inkscape:connector-curvature="0"
           style="fill:url(#linearGradient4371);fill-opacity:1"
           id="path4046"
           d="m 6.984,988.426 69.912,-1.872 1.512,3.312 -0.216,0.504 -71.208,-1.944 z" />
      </g>
    </g>
    <path
       id="path4212"
       d="M 9,0 C 4.0271436,0 0,4.0271436 0,9 l 0,54 1.9375,0 0,-53 c 0,-4.3962931 3.6037067,-7.96875 8,-7.96875 l 108.0625,0 c 4.3963,0 7.96875,3.5724569 7.96875,7.96875 l 0,53 L 128,63 128,9 c 0,-4.9728564 -4.02714,-9 -9,-9 L 9,0 z"
       style="fill:url(#linearGradient4377);fill-opacity:1"
       inkscape:connector-curvature="0" />
  </g>
</svg>
