<?xml version="1.0" encoding="UTF-8" standalone="no"?>
<!-- Created with Inkscape (http://www.inkscape.org/) -->
<svg
   xmlns:dc="http://purl.org/dc/elements/1.1/"
   xmlns:cc="http://creativecommons.org/ns#"
   xmlns:rdf="http://www.w3.org/1999/02/22-rdf-syntax-ns#"
   xmlns:svg="http://www.w3.org/2000/svg"
   xmlns="http://www.w3.org/2000/svg"
   xmlns:xlink="http://www.w3.org/1999/xlink"
   xmlns:sodipodi="http://sodipodi.sourceforge.net/DTD/sodipodi-0.dtd"
   xmlns:inkscape="http://www.inkscape.org/namespaces/inkscape"
   width="32"
   height="32"
   id="svg9289"
   sodipodi:version="0.32"
   inkscape:version="0.46"
   version="1.0"
   sodipodi:docbase="/home/h1/Desktop/x2goicons"
   sodipodi:docname="lxde.svg"
   inkscape:export-filename="/home/h1/Desktop/lxde-128.png"
   inkscape:export-xdpi="360"
   inkscape:export-ydpi="360"
   inkscape:output_extension="org.inkscape.output.svg.inkscape">
  <defs
     id="defs9291">
    <linearGradient
       inkscape:collect="always"
       id="linearGradient3490">
      <stop
         style="stop-color:#e6e6e6;stop-opacity:1;"
         offset="0"
         id="stop3492" />
      <stop
         style="stop-color:#e6e6e6;stop-opacity:0;"
         offset="1"
         id="stop3494" />
    </linearGradient>
    <linearGradient
       id="linearGradient3474">
      <stop
         style="stop-color:#5c5c5c;stop-opacity:1;"
         offset="0"
         id="stop3476" />
      <stop
         style="stop-color:#ffffff;stop-opacity:1;"
         offset="1"
         id="stop3478" />
    </linearGradient>
    <inkscape:perspective
       sodipodi:type="inkscape:persp3d"
       inkscape:vp_x="0 : 16 : 1"
       inkscape:vp_y="0 : 1000 : 0"
       inkscape:vp_z="32 : 16 : 1"
       inkscape:persp3d-origin="16 : 10.666667 : 1"
       id="perspective2597" />
    <linearGradient
       id="linearGradient9259">
      <stop
         style="stop-color:#a9a9a9;stop-opacity:1;"
         offset="0"
         id="stop9261" />
      <stop
         id="stop9267"
         offset="0.5"
         style="stop-color:#a9a9a9;stop-opacity:1;" />
      <stop
         style="stop-color:#a9a9a9;stop-opacity:0;"
         offset="1"
         id="stop9263" />
    </linearGradient>
    <linearGradient
       id="linearGradient6452">
      <stop
         style="stop-color:silver;stop-opacity:1;"
         offset="0"
         id="stop6454" />
      <stop
         style="stop-color:white;stop-opacity:1;"
         offset="1"
         id="stop6456" />
    </linearGradient>
    <linearGradient
       id="linearGradient6444">
      <stop
         style="stop-color:#4080de;stop-opacity:1;"
         offset="0"
         id="stop6446" />
      <stop
         style="stop-color:white;stop-opacity:1;"
         offset="1"
         id="stop6448" />
    </linearGradient>
    <linearGradient
       inkscape:collect="always"
       xlink:href="#linearGradient3236"
       id="linearGradient3744"
       gradientUnits="userSpaceOnUse"
       x1="65"
       y1="75.949348"
       x2="76.413841"
       y2="69.433105" />
    <linearGradient
       inkscape:collect="always"
       id="linearGradient2940">
      <stop
         style="stop-color:silver;stop-opacity:1;"
         offset="0"
         id="stop2942" />
      <stop
         style="stop-color:silver;stop-opacity:0;"
         offset="1"
         id="stop2944" />
    </linearGradient>
    <linearGradient
       inkscape:collect="always"
       xlink:href="#linearGradient2940"
       id="linearGradient2946"
       x1="76.77298"
       y1="270.99518"
       x2="76.730774"
       y2="273.14767"
       gradientUnits="userSpaceOnUse"
       gradientTransform="translate(-74.0446,-259.9066)" />
    <linearGradient
       inkscape:collect="always"
       id="linearGradient2962">
      <stop
         style="stop-color:#d3d3d3;stop-opacity:1;"
         offset="0"
         id="stop2964" />
      <stop
         style="stop-color:#d3d3d3;stop-opacity:0;"
         offset="1"
         id="stop2966" />
    </linearGradient>
    <linearGradient
       inkscape:collect="always"
       xlink:href="#linearGradient2962"
       id="linearGradient2968"
       x1="88.548492"
       y1="271.79709"
       x2="88.506287"
       y2="274.87814"
       gradientUnits="userSpaceOnUse"
       gradientTransform="translate(-74.0446,-259.9066)" />
    <linearGradient
       inkscape:collect="always"
       id="linearGradient2871">
      <stop
         style="stop-color:#d3d3d3;stop-opacity:1;"
         offset="0"
         id="stop2873" />
      <stop
         style="stop-color:#d3d3d3;stop-opacity:0;"
         offset="1"
         id="stop2875" />
    </linearGradient>
    <linearGradient
       inkscape:collect="always"
       xlink:href="#linearGradient2871"
       id="linearGradient2911"
       gradientUnits="userSpaceOnUse"
       gradientTransform="translate(-74,-214.585)"
       x1="83.476639"
       y1="224.97665"
       x2="83.56498"
       y2="227.27338" />
    <linearGradient
       inkscape:collect="always"
       id="linearGradient2809">
      <stop
         style="stop-color:#d3d3d3;stop-opacity:1;"
         offset="0"
         id="stop2811" />
      <stop
         style="stop-color:#d3d3d3;stop-opacity:0;"
         offset="1"
         id="stop2813" />
    </linearGradient>
    <linearGradient
       inkscape:collect="always"
       xlink:href="#linearGradient2809"
       id="linearGradient2815"
       x1="82.050461"
       y1="195.24861"
       x2="82.016541"
       y2="197.38553"
       gradientUnits="userSpaceOnUse"
       gradientTransform="translate(-66,-187.779)" />
    <linearGradient
       inkscape:collect="always"
       id="linearGradient2848">
      <stop
         style="stop-color:#397cdc;stop-opacity:1;"
         offset="0"
         id="stop2850" />
      <stop
         style="stop-color:#397cdc;stop-opacity:0;"
         offset="1"
         id="stop2852" />
    </linearGradient>
    <linearGradient
       inkscape:collect="always"
       xlink:href="#linearGradient2848"
       id="linearGradient2854"
       x1="81.5"
       y1="183"
       x2="81.5"
       y2="184.78314"
       gradientUnits="userSpaceOnUse" />
    <linearGradient
       inkscape:collect="always"
       id="linearGradient3313">
      <stop
         style="stop-color:#d3d3d3;stop-opacity:1;"
         offset="0"
         id="stop3315" />
      <stop
         style="stop-color:#d3d3d3;stop-opacity:0;"
         offset="1"
         id="stop3317" />
    </linearGradient>
    <linearGradient
       inkscape:collect="always"
       xlink:href="#linearGradient3313"
       id="linearGradient3319"
       x1="103.38077"
       y1="74.027977"
       x2="103.38077"
       y2="77.322983"
       gradientUnits="userSpaceOnUse"
       gradientTransform="translate(-94,-63.45946)" />
    <linearGradient
       inkscape:collect="always"
       id="linearGradient3305">
      <stop
         style="stop-color:white;stop-opacity:1;"
         offset="0"
         id="stop3307" />
      <stop
         style="stop-color:white;stop-opacity:0;"
         offset="1"
         id="stop3309" />
    </linearGradient>
    <linearGradient
       inkscape:collect="always"
       xlink:href="#linearGradient3305"
       id="linearGradient3311"
       x1="108.95865"
       y1="79.669716"
       x2="116.14559"
       y2="80.80014"
       gradientUnits="userSpaceOnUse"
       gradientTransform="translate(-94,-63.45946)" />
    <linearGradient
       inkscape:collect="always"
       xlink:href="#linearGradient3134"
       id="linearGradient3206"
       gradientUnits="userSpaceOnUse"
       gradientTransform="translate(-25.5,-63.30221)"
       x1="31.028738"
       y1="75.067184"
       x2="32.821854"
       y2="84.266655" />
    <linearGradient
       inkscape:collect="always"
       xlink:href="#linearGradient3152"
       id="linearGradient3202"
       gradientUnits="userSpaceOnUse"
       gradientTransform="translate(-25.5,-63.30221)"
       x1="37.893543"
       y1="70.128487"
       x2="19.909704"
       y2="90.006599" />
    <linearGradient
       inkscape:collect="always"
       id="linearGradient3236">
      <stop
         style="stop-color:#3b7ddc;stop-opacity:1;"
         offset="0"
         id="stop3238" />
      <stop
         style="stop-color:#3b7ddc;stop-opacity:0;"
         offset="1"
         id="stop3240" />
    </linearGradient>
    <linearGradient
       inkscape:collect="always"
       xlink:href="#linearGradient3236"
       id="linearGradient3242"
       x1="65"
       y1="75.949348"
       x2="76.413841"
       y2="69.433105"
       gradientUnits="userSpaceOnUse" />
    <linearGradient
       inkscape:collect="always"
       id="linearGradient3134">
      <stop
         style="stop-color:silver;stop-opacity:1;"
         offset="0"
         id="stop3136" />
      <stop
         style="stop-color:silver;stop-opacity:0;"
         offset="1"
         id="stop3138" />
    </linearGradient>
    <linearGradient
       inkscape:collect="always"
       xlink:href="#linearGradient3134"
       id="linearGradient3140"
       x1="31.028738"
       y1="75.067184"
       x2="32.821854"
       y2="84.266655"
       gradientUnits="userSpaceOnUse"
       gradientTransform="translate(-25.5,-63.27396)" />
    <linearGradient
       inkscape:collect="always"
       id="linearGradient3152">
      <stop
         style="stop-color:#4080de;stop-opacity:1;"
         offset="0"
         id="stop3154" />
      <stop
         style="stop-color:#4080de;stop-opacity:0;"
         offset="1"
         id="stop3156" />
    </linearGradient>
    <linearGradient
       inkscape:collect="always"
       xlink:href="#linearGradient3152"
       id="linearGradient3158"
       x1="37.893543"
       y1="70.128487"
       x2="19.909704"
       y2="90.006599"
       gradientUnits="userSpaceOnUse"
       gradientTransform="translate(-25.5,-63.27396)" />
    <filter
       inkscape:collect="always"
       id="filter3512">
      <feGaussianBlur
         inkscape:collect="always"
         stdDeviation="0.47850407"
         id="feGaussianBlur3514" />
    </filter>
    <linearGradient
       inkscape:collect="always"
       xlink:href="#linearGradient3474"
       id="linearGradient3521"
       gradientUnits="userSpaceOnUse"
       x1="15"
       y1="17.482098"
       x2="0"
       y2="0" />
    <linearGradient
       inkscape:collect="always"
       xlink:href="#linearGradient3490"
       id="linearGradient3523"
       gradientUnits="userSpaceOnUse"
       x1="6"
       y1="10"
       x2="18"
       y2="20" />
    <linearGradient
       inkscape:collect="always"
       xlink:href="#linearGradient3474"
       id="linearGradient3525"
       gradientUnits="userSpaceOnUse"
       x1="14.493927"
       y1="17"
       x2="21"
       y2="26" />
    <inkscape:perspective
       id="perspective3622"
       inkscape:persp3d-origin="372.04724 : 350.78739 : 1"
       inkscape:vp_z="744.09448 : 526.18109 : 1"
       inkscape:vp_y="0 : 1000 : 0"
       inkscape:vp_x="0 : 526.18109 : 1"
       sodipodi:type="inkscape:persp3d" />
    <inkscape:perspective
       id="perspective3672"
       inkscape:persp3d-origin="372.04724 : 350.78739 : 1"
       inkscape:vp_z="744.09448 : 526.18109 : 1"
       inkscape:vp_y="0 : 1000 : 0"
       inkscape:vp_x="0 : 526.18109 : 1"
       sodipodi:type="inkscape:persp3d" />
    <linearGradient
       inkscape:collect="always"
       xlink:href="#linearGradient3474"
       id="linearGradient3686"
       x1="19.483974"
       y1="22"
       x2="10"
       y2="5.4970994"
       gradientUnits="userSpaceOnUse" />
    <linearGradient
       inkscape:collect="always"
       xlink:href="#linearGradient6444"
       id="linearGradient3694"
       x1="17"
       y1="10"
       x2="25"
       y2="24"
       gradientUnits="userSpaceOnUse" />
    <filter
       inkscape:collect="always"
       id="filter3712">
      <feGaussianBlur
         inkscape:collect="always"
         stdDeviation="0.450924"
         id="feGaussianBlur3714" />
    </filter>
    <linearGradient
       inkscape:collect="always"
       xlink:href="#linearGradient3305"
       id="linearGradient3718"
       gradientUnits="userSpaceOnUse"
       x1="19.483974"
       y1="22"
       x2="10"
       y2="5.4970994" />
  </defs>
  <sodipodi:namedview
     id="base"
     pagecolor="#ffffff"
     bordercolor="#666666"
     borderopacity="1.0"
     inkscape:pageopacity="0.0"
     inkscape:pageshadow="2"
     inkscape:zoom="13.875"
     inkscape:cx="32.036036"
     inkscape:cy="16"
     inkscape:document-units="px"
     inkscape:current-layer="layer1"
     width="32px"
     height="32px"
     showgrid="true"
     inkscape:object-nodes="true"
     inkscape:grid-points="true"
     inkscape:guide-points="true"
     inkscape:window-width="977"
     inkscape:window-height="726"
     inkscape:window-x="-1"
     inkscape:window-y="25"
     objecttolerance="7"
     gridtolerance="7"
     guidetolerance="7">
    <inkscape:grid
       type="xygrid"
       id="grid2599"
       visible="true"
       enabled="true"
       dotted="true" />
  </sodipodi:namedview>
  <metadata
     id="metadata9294">
    <rdf:RDF>
      <cc:Work
         rdf:about="">
        <dc:format>image/svg+xml</dc:format>
        <dc:type
           rdf:resource="http://purl.org/dc/dcmitype/StillImage" />
      </cc:Work>
    </rdf:RDF>
  </metadata>
  <g
     inkscape:label="Ebene 1"
     inkscape:groupmode="layer"
     id="layer1">
    <path
       style="fill:#000000;fill-opacity:1;stroke:#000000;stroke-width:0.50000000000000000;stroke-miterlimit:4;stroke-dasharray:none;stroke-opacity:1;filter:url(#filter3712)"
       d="M 29.078296,29.209355 C 28.619862,27.912323 28.260045,26.61663 27.805413,25.328243 C 27.572019,24.666826 26.626465,21.78912 25.890995,19.962066 C 23.72201,14.573863 22.056029,11.934219 20.282429,11.075635 C 19.669937,10.779132 19.224391,10.774689 18.598892,11.058847 C 17.97287,11.343243 17.814573,11.531741 15.117177,15.204841 C 11.633648,19.948435 8.3444418,24.36256 7.5245531,25.394167 C 6.4117188,26.794369 4.9138851,28.471757 4.8724848,28.364154 C 4.8523294,28.311767 5.0279678,27.887388 5.2627925,27.421086 C 5.7835115,26.074541 6.623735,24.901173 7.3952664,23.685 C 8.2177094,22.330933 9.7028163,19.899017 10.695504,18.280742 C 13.088684,14.379393 13.299578,13.998621 13.126461,13.891628 C 12.898724,13.750879 10.993874,15.813632 8.4624743,18.942239 C 5.8063637,22.224978 4.3628751,23.92519 4.2319228,23.92519 C 4.1823189,23.92519 4.2774543,23.618301 4.443335,23.243216 C 4.7587912,22.529912 5.8119253,20.903547 8.7292403,16.624447 C 9.688033,15.218094 10.650586,13.723964 10.868246,13.304158 C 11.21187,12.641399 11.242177,12.514591 11.09837,12.341315 C 10.766637,11.941599 9.6436859,12.257814 5.2888518,13.977231 C 3.4500837,14.703231 1.9196359,15.271229 1.8878565,15.23945 C 1.7259928,15.077586 2.3669837,14.562602 5.0732399,12.680251 C 11.044743,8.5267386 16.21326,5.2423295 18.425053,4.1956469 C 21.073536,2.9423091 21.523192,2.7430744 22.313868,2.472578 C 22.771289,2.3160911 23.19202,2.188057 23.248827,2.188057 C 23.404774,2.188057 23.157277,2.5916603 22.622265,3.2098187 C 22.298525,3.5838703 22.142714,3.878023 22.142714,4.1151522 C 22.142714,4.3083425 22.078493,4.7065247 22,5 L 21.857287,5.5335926 L 22.630497,6.3539986 C 24.345932,8.1741406 25.435103,10.447313 26.561451,14.558142 C 27.136458,16.656744 28.423517,23.063373 28.672446,25.066089 C 28.770966,25.858714 28.939178,26.901941 29.046253,27.384373 C 29.232091,28.221688 29.25618,29.593572 29.078296,29.209355 z"
       id="path3698"
       sodipodi:nodetypes="csssssssccsssssssssssssssscccsssc" />
    <path
       style="fill:url(#linearGradient3694);fill-opacity:1;stroke:url(#linearGradient3686);stroke-width:0.50000000000000000;stroke-miterlimit:4;stroke-dasharray:none"
       d="M 29.078296,29.209355 C 28.619862,27.912323 28.260045,26.61663 27.805413,25.328243 C 27.572019,24.666826 26.626465,21.78912 25.890995,19.962066 C 23.72201,14.573863 22.056029,11.934219 20.282429,11.075635 C 19.669937,10.779132 19.224391,10.774689 18.598892,11.058847 C 17.97287,11.343243 17.814573,11.531741 15.117177,15.204841 C 11.633648,19.948435 8.3444418,24.36256 7.5245531,25.394167 C 6.4117188,26.794369 4.9138851,28.471757 4.8724848,28.364154 C 4.8523294,28.311767 5.0279678,27.887388 5.2627925,27.421086 C 5.7835115,26.074541 6.623735,24.901173 7.3952664,23.685 C 8.2177094,22.330933 9.7028163,19.899017 10.695504,18.280742 C 13.088684,14.379393 13.299578,13.998621 13.126461,13.891628 C 12.898724,13.750879 10.993874,15.813632 8.4624743,18.942239 C 5.8063637,22.224978 4.3628751,23.92519 4.2319228,23.92519 C 4.1823189,23.92519 4.2774543,23.618301 4.443335,23.243216 C 4.7587912,22.529912 5.8119253,20.903547 8.7292403,16.624447 C 9.688033,15.218094 10.650586,13.723964 10.868246,13.304158 C 11.21187,12.641399 11.242177,12.514591 11.09837,12.341315 C 10.766637,11.941599 9.6436859,12.257814 5.2888518,13.977231 C 3.4500837,14.703231 1.9196359,15.271229 1.8878565,15.23945 C 1.7259928,15.077586 2.3669837,14.562602 5.0732399,12.680251 C 11.044743,8.5267386 16.21326,5.2423295 18.425053,4.1956469 C 21.073536,2.9423091 21.523192,2.7430744 22.313868,2.472578 C 22.771289,2.3160911 23.19202,2.188057 23.248827,2.188057 C 23.404774,2.188057 23.157277,2.5916603 22.622265,3.2098187 C 22.298525,3.5838703 22.142714,3.878023 22.142714,4.1151522 C 22.142714,4.3083425 22.078493,4.7065247 22,5 L 21.857287,5.5335926 L 22.630497,6.3539986 C 24.345932,8.1741406 25.435103,10.447313 26.561451,14.558142 C 27.136458,16.656744 28.423517,23.063373 28.672446,25.066089 C 28.770966,25.858714 28.939178,26.901941 29.046253,27.384373 C 29.232091,28.221688 29.25618,29.593572 29.078296,29.209355 z"
       id="path3678"
       sodipodi:nodetypes="csssssssccsssssssssssssssscccsssc" />
    <path
       sodipodi:nodetypes="csssssssccsssssssssssssssscccsssc"
       id="path3696"
       d="M 29.078296,29.209355 C 28.619862,27.912323 28.260045,26.61663 27.805413,25.328243 C 27.572019,24.666826 26.626465,21.78912 25.890995,19.962066 C 23.72201,14.573863 22.056029,11.934219 20.282429,11.075635 C 19.669937,10.779132 19.224391,10.774689 18.598892,11.058847 C 17.97287,11.343243 17.814573,11.531741 15.117177,15.204841 C 11.633648,19.948435 8.3444418,24.36256 7.5245531,25.394167 C 6.4117188,26.794369 4.9138851,28.471757 4.8724848,28.364154 C 4.8523294,28.311767 5.0279678,27.887388 5.2627925,27.421086 C 5.7835115,26.074541 6.623735,24.901173 7.3952664,23.685 C 8.2177094,22.330933 9.7028163,19.899017 10.695504,18.280742 C 13.088684,14.379393 13.299578,13.998621 13.126461,13.891628 C 12.898724,13.750879 10.993874,15.813632 8.4624743,18.942239 C 5.8063637,22.224978 4.3628751,23.92519 4.2319228,23.92519 C 4.1823189,23.92519 4.2774543,23.618301 4.443335,23.243216 C 4.7587912,22.529912 5.8119253,20.903547 8.7292403,16.624447 C 9.688033,15.218094 10.650586,13.723964 10.868246,13.304158 C 11.21187,12.641399 11.242177,12.514591 11.09837,12.341315 C 10.766637,11.941599 9.6436859,12.257814 5.2888518,13.977231 C 3.4500837,14.703231 1.9196359,15.271229 1.8878565,15.23945 C 1.7259928,15.077586 2.3669837,14.562602 5.0732399,12.680251 C 11.044743,8.5267386 16.21326,5.2423295 18.425053,4.1956469 C 21.073536,2.9423091 21.523192,2.7430744 22.313868,2.472578 C 22.771289,2.3160911 23.19202,2.188057 23.248827,2.188057 C 23.404774,2.188057 23.157277,2.5916603 22.622265,3.2098187 C 22.298525,3.5838703 22.142714,3.878023 22.142714,4.1151522 C 22.142714,4.3083425 22.078493,4.7065247 22,5 L 21.857287,5.5335926 L 22.630497,6.3539986 C 24.345932,8.1741406 25.435103,10.447313 26.561451,14.558142 C 27.136458,16.656744 28.423517,23.063373 28.672446,25.066089 C 28.770966,25.858714 28.939178,26.901941 29.046253,27.384373 C 29.232091,28.221688 29.25618,29.593572 29.078296,29.209355 z"
       style="fill:url(#linearGradient3694);fill-opacity:1;stroke:url(#linearGradient3686);stroke-width:0.50000000000000000;stroke-miterlimit:4;stroke-dasharray:none" />
    <path
       style="fill:url(#linearGradient3694);fill-opacity:1;stroke:url(#linearGradient3718);stroke-width:0.50000000000000000;stroke-miterlimit:4;stroke-dasharray:none"
       d="M 29.078296,29.209355 C 28.619862,27.912323 28.260045,26.61663 27.805413,25.328243 C 27.572019,24.666826 26.626465,21.78912 25.890995,19.962066 C 23.72201,14.573863 22.056029,11.934219 20.282429,11.075635 C 19.669937,10.779132 19.224391,10.774689 18.598892,11.058847 C 17.97287,11.343243 17.814573,11.531741 15.117177,15.204841 C 11.633648,19.948435 8.3444418,24.36256 7.5245531,25.394167 C 6.4117188,26.794369 4.9138851,28.471757 4.8724848,28.364154 C 4.8523294,28.311767 5.0279678,27.887388 5.2627925,27.421086 C 5.7835115,26.074541 6.623735,24.901173 7.3952664,23.685 C 8.2177094,22.330933 9.7028163,19.899017 10.695504,18.280742 C 13.088684,14.379393 13.299578,13.998621 13.126461,13.891628 C 12.898724,13.750879 10.993874,15.813632 8.4624743,18.942239 C 5.8063637,22.224978 4.3628751,23.92519 4.2319228,23.92519 C 4.1823189,23.92519 4.2774543,23.618301 4.443335,23.243216 C 4.7587912,22.529912 5.8119253,20.903547 8.7292403,16.624447 C 9.688033,15.218094 10.650586,13.723964 10.868246,13.304158 C 11.21187,12.641399 11.242177,12.514591 11.09837,12.341315 C 10.766637,11.941599 9.6436859,12.257814 5.2888518,13.977231 C 3.4500837,14.703231 1.9196359,15.271229 1.8878565,15.23945 C 1.7259928,15.077586 2.3669837,14.562602 5.0732399,12.680251 C 11.044743,8.5267386 16.21326,5.2423295 18.425053,4.1956469 C 21.073536,2.9423091 21.523192,2.7430744 22.313868,2.472578 C 22.771289,2.3160911 23.19202,2.188057 23.248827,2.188057 C 23.404774,2.188057 23.157277,2.5916603 22.622265,3.2098187 C 22.298525,3.5838703 22.142714,3.878023 22.142714,4.1151522 C 22.142714,4.3083425 22.078493,4.7065247 22,5 L 21.857287,5.5335926 L 22.630497,6.3539986 C 24.345932,8.1741406 25.435103,10.447313 26.561451,14.558142 C 27.136458,16.656744 28.423517,23.063373 28.672446,25.066089 C 28.770966,25.858714 28.939178,26.901941 29.046253,27.384373 C 29.232091,28.221688 29.25618,29.593572 29.078296,29.209355 z"
       id="path3716"
       sodipodi:nodetypes="csssssssccsssssssssssssssscccsssc" />
  </g>
</svg>
