<?xml version="1.0" encoding="UTF-8" standalone="no"?>
<!-- Created with Inkscape (http://www.inkscape.org/) -->
<svg
   xmlns:dc="http://purl.org/dc/elements/1.1/"
   xmlns:cc="http://creativecommons.org/ns#"
   xmlns:rdf="http://www.w3.org/1999/02/22-rdf-syntax-ns#"
   xmlns:svg="http://www.w3.org/2000/svg"
   xmlns="http://www.w3.org/2000/svg"
   xmlns:xlink="http://www.w3.org/1999/xlink"
   xmlns:sodipodi="http://sodipodi.sourceforge.net/DTD/sodipodi-0.dtd"
   xmlns:inkscape="http://www.inkscape.org/namespaces/inkscape"
   width="32"
   height="32"
   id="svg9289"
   sodipodi:version="0.32"
   inkscape:version="0.46"
   version="1.0"
   sodipodi:docbase="/home/h1/Desktop/x2goicons"
   sodipodi:docname="windows.svg"
   inkscape:export-filename="/home/h1/Desktop/rdp-16.png"
   inkscape:export-xdpi="45"
   inkscape:export-ydpi="45"
   inkscape:output_extension="org.inkscape.output.svg.inkscape">
  <defs
     id="defs9291">
    <inkscape:perspective
       sodipodi:type="inkscape:persp3d"
       inkscape:vp_x="0 : 16 : 1"
       inkscape:vp_y="0 : 1000 : 0"
       inkscape:vp_z="32 : 16 : 1"
       inkscape:persp3d-origin="16 : 10.666667 : 1"
       id="perspective5315" />
    <linearGradient
       inkscape:collect="always"
       xlink:href="#linearGradient3134"
       id="linearGradient3206"
       gradientUnits="userSpaceOnUse"
       gradientTransform="matrix(1.168865,0,0,1.168865,-26.93664,-72.22295)"
       x1="31.028738"
       y1="75.067184"
       x2="32.821854"
       y2="84.266655" />
    <linearGradient
       inkscape:collect="always"
       xlink:href="#linearGradient3152"
       id="linearGradient3202"
       gradientUnits="userSpaceOnUse"
       gradientTransform="matrix(1.168786,0,0,1.172471,-26.93381,-72.53739)"
       x1="37.893543"
       y1="70.128487"
       x2="19.909704"
       y2="90.006599" />
    <linearGradient
       inkscape:collect="always"
       id="linearGradient3236">
      <stop
         style="stop-color:#3b7ddc;stop-opacity:1;"
         offset="0"
         id="stop3238" />
      <stop
         style="stop-color:#3b7ddc;stop-opacity:0;"
         offset="1"
         id="stop3240" />
    </linearGradient>
    <linearGradient
       inkscape:collect="always"
       xlink:href="#linearGradient3236"
       id="linearGradient3242"
       x1="65"
       y1="75.949348"
       x2="76.413841"
       y2="69.433105"
       gradientUnits="userSpaceOnUse" />
    <linearGradient
       id="linearGradient3134">
      <stop
         style="stop-color:#ffffff;stop-opacity:1;"
         offset="0"
         id="stop3136" />
      <stop
         id="stop5976"
         offset="0.5"
         style="stop-color:#a6a6a6;stop-opacity:1;" />
      <stop
         style="stop-color:#ffffff;stop-opacity:1;"
         offset="1"
         id="stop3138" />
    </linearGradient>
    <linearGradient
       inkscape:collect="always"
       xlink:href="#linearGradient3134"
       id="linearGradient3140"
       x1="31.028738"
       y1="75.067184"
       x2="32.821854"
       y2="84.266655"
       gradientUnits="userSpaceOnUse"
       gradientTransform="translate(-25.5,-63.27396)" />
    <linearGradient
       inkscape:collect="always"
       id="linearGradient3152">
      <stop
         style="stop-color:#4080de;stop-opacity:1;"
         offset="0"
         id="stop3154" />
      <stop
         style="stop-color:#4080de;stop-opacity:0;"
         offset="1"
         id="stop3156" />
    </linearGradient>
    <linearGradient
       inkscape:collect="always"
       xlink:href="#linearGradient3152"
       id="linearGradient3158"
       x1="37.893543"
       y1="70.128487"
       x2="19.909704"
       y2="90.006599"
       gradientUnits="userSpaceOnUse"
       gradientTransform="translate(-25.5,-63.27396)" />
    <linearGradient
       inkscape:collect="always"
       xlink:href="#linearGradient3236"
       id="linearGradient2781"
       gradientUnits="userSpaceOnUse"
       x1="65"
       y1="75.949348"
       x2="76.413841"
       y2="69.433105"
       gradientTransform="matrix(1.168865,0,0,1.168865,-60.83374,-72.22295)" />
    <inkscape:perspective
       id="perspective5926"
       inkscape:persp3d-origin="372.04724 : 350.78739 : 1"
       inkscape:vp_z="744.09448 : 526.18109 : 1"
       inkscape:vp_y="0 : 1000 : 0"
       inkscape:vp_x="0 : 526.18109 : 1"
       sodipodi:type="inkscape:persp3d" />
    <linearGradient
       inkscape:collect="always"
       xlink:href="#linearGradient3134"
       id="linearGradient5974"
       x1="7.365077"
       y1="11.320039"
       x2="24.181597"
       y2="16.372671"
       gradientUnits="userSpaceOnUse" />
    <filter
       inkscape:collect="always"
       id="filter5992">
      <feGaussianBlur
         inkscape:collect="always"
         stdDeviation="0.49673015"
         id="feGaussianBlur5994" />
    </filter>
  </defs>
  <sodipodi:namedview
     id="base"
     pagecolor="#ffffff"
     bordercolor="#666666"
     borderopacity="1.0"
     inkscape:pageopacity="0.0"
     inkscape:pageshadow="2"
     inkscape:zoom="15.4375"
     inkscape:cx="16"
     inkscape:cy="16"
     inkscape:document-units="px"
     inkscape:current-layer="layer1"
     width="32px"
     height="32px"
     showgrid="true"
     inkscape:object-nodes="true"
     inkscape:grid-points="true"
     inkscape:guide-points="true"
     inkscape:window-width="897"
     inkscape:window-height="726"
     inkscape:window-x="-5"
     inkscape:window-y="25" />
  <metadata
     id="metadata9294">
    <rdf:RDF>
      <cc:Work
         rdf:about="">
        <dc:format>image/svg+xml</dc:format>
        <dc:type
           rdf:resource="http://purl.org/dc/dcmitype/StillImage" />
      </cc:Work>
    </rdf:RDF>
  </metadata>
  <g
     inkscape:label="Ebene 1"
     inkscape:groupmode="layer"
     id="layer1">
    <path
       style="fill:#000000;fill-opacity:1;stroke:#000000;stroke-opacity:1;stroke-width:0.50000000000000000;stroke-miterlimit:4;stroke-dasharray:none;filter:url(#filter5992)"
       d="M 16.453328,27.428675 C 15.234641,27.203854 13.23773,26.358289 12.667502,25.825616 C 12.464414,25.635905 12.455188,25.601292 12.532491,25.31919 C 12.937607,23.840821 14.947485,17.000601 15.012403,16.879298 C 15.138961,16.642821 15.354747,16.687625 16.011011,17.086638 C 16.794118,17.562775 17.422867,17.844266 18.2612,18.094049 C 18.827926,18.262905 19.154106,18.304761 20.163187,18.338116 C 21.576243,18.384821 22.385933,18.277637 23.959467,17.835579 C 25.280425,17.464479 25.308582,17.46089 25.473093,17.642672 C 25.607349,17.791025 25.571729,17.935751 24.393469,22.029217 C 23.723315,24.357438 23.135852,26.3098 23.087997,26.367799 C 22.98929,26.487427 22.869218,26.539293 21.94331,26.862266 C 20.635933,27.3183 19.757941,27.477542 18.361194,27.511948 C 17.4415,27.534604 16.899239,27.510935 16.453328,27.428675 z M 11.033469,24.828059 C 10.887826,24.749778 10.581935,24.575439 10.353712,24.440643 C 9.2270018,23.775165 8.2550822,23.493677 6.9041743,23.441583 C 5.5028125,23.387545 4.2361937,23.612667 2.5898203,24.208394 C 1.9512058,24.439472 1.9163198,24.443949 1.7719802,24.313323 C 1.6640843,24.215679 1.6348534,24.119087 1.669188,23.973658 C 1.6955753,23.861887 2.2540202,21.895668 2.9101773,19.604282 C 3.8383674,16.362911 4.1398973,15.408359 4.268565,15.304033 C 4.530533,15.091625 6.2291148,14.573531 7.4156344,14.344128 C 8.3738517,14.158867 8.6252712,14.139033 9.5571174,14.1752 C 10.736242,14.220964 11.288944,14.341363 12.28717,14.769907 C 13.000615,15.076193 14.057995,15.723083 14.123279,15.893211 C 14.15589,15.978193 13.406535,18.61408 11.73476,24.294915 C 11.549285,24.925179 11.410484,25.0307 11.033469,24.828059 z M 19.8797,17.298905 C 19.179408,17.195313 18.399102,16.989635 17.777153,16.7447 C 16.960515,16.423093 15.575352,15.655366 15.475664,15.469098 C 15.428117,15.380254 15.659573,14.466044 16.225323,12.50808 C 16.675467,10.950209 17.238657,8.9922601 17.476856,8.1570819 C 17.738636,7.2392244 17.969403,6.5769722 18.060259,6.4828331 C 18.231216,6.3057007 18.086881,6.2485544 19.410105,7.0172756 C 20.641508,7.7326536 21.596451,8.0038826 23.073767,8.0578553 C 24.41662,8.106916 25.439922,7.935237 26.966062,7.4048477 C 28.256809,6.9562669 28.339199,6.941092 28.502755,7.1218173 C 28.624042,7.2558384 28.62494,7.3031435 28.514313,7.7315644 C 28.399532,8.1760759 26.303465,15.406312 26.14066,15.919315 C 26.073737,16.130193 25.979033,16.201215 25.501739,16.398462 C 24.139286,16.961515 22.678067,17.267401 21.164589,17.306384 C 20.586389,17.321278 20.008188,17.317912 19.8797,17.298905 z M 13.999141,14.387331 C 11.152336,12.758341 9.1583229,12.59394 5.8807126,13.717991 C 4.9440275,14.039226 4.8772414,14.051573 4.7289813,13.930906 C 4.5724105,13.803472 4.573637,13.795761 4.9662051,12.440047 C 5.1832394,11.690529 5.748729,9.7281521 6.222849,8.0792095 C 6.6980063,6.426661 7.1426468,5.0225959 7.2135884,4.9506993 C 7.4053826,4.756322 8.7728488,4.3080338 10.035024,4.0257646 C 11.099526,3.7877023 11.203343,3.7784257 12.360663,3.8179572 C 13.736635,3.8649577 14.316245,3.996115 15.356078,4.4957755 C 16.052791,4.8305595 17.018006,5.4245263 17.065205,5.5475248 C 17.081872,5.5909583 16.948101,6.1345528 16.767936,6.7555128 C 16.58777,7.3764724 16.025754,9.3212711 15.519007,11.077285 C 14.695911,13.929545 14.483443,14.542594 14.318028,14.542594 C 14.291875,14.542594 14.148377,14.472726 13.999141,14.387331 z"
       id="path5978" />
    <path
       id="path5946"
       d="M 16.453328,27.428675 C 15.234641,27.203854 13.23773,26.358289 12.667502,25.825616 C 12.464414,25.635905 12.455188,25.601292 12.532491,25.31919 C 12.937607,23.840821 14.947485,17.000601 15.012403,16.879298 C 15.138961,16.642821 15.354747,16.687625 16.011011,17.086638 C 16.794118,17.562775 17.422867,17.844266 18.2612,18.094049 C 18.827926,18.262905 19.154106,18.304761 20.163187,18.338116 C 21.576243,18.384821 22.385933,18.277637 23.959467,17.835579 C 25.280425,17.464479 25.308582,17.46089 25.473093,17.642672 C 25.607349,17.791025 25.571729,17.935751 24.393469,22.029217 C 23.723315,24.357438 23.135852,26.3098 23.087997,26.367799 C 22.98929,26.487427 22.869218,26.539293 21.94331,26.862266 C 20.635933,27.3183 19.757941,27.477542 18.361194,27.511948 C 17.4415,27.534604 16.899239,27.510935 16.453328,27.428675 z M 11.033469,24.828059 C 10.887826,24.749778 10.581935,24.575439 10.353712,24.440643 C 9.2270018,23.775165 8.2550822,23.493677 6.9041743,23.441583 C 5.5028125,23.387545 4.2361937,23.612667 2.5898203,24.208394 C 1.9512058,24.439472 1.9163198,24.443949 1.7719802,24.313323 C 1.6640843,24.215679 1.6348534,24.119087 1.669188,23.973658 C 1.6955753,23.861887 2.2540202,21.895668 2.9101773,19.604282 C 3.8383674,16.362911 4.1398973,15.408359 4.268565,15.304033 C 4.530533,15.091625 6.2291148,14.573531 7.4156344,14.344128 C 8.3738517,14.158867 8.6252712,14.139033 9.5571174,14.1752 C 10.736242,14.220964 11.288944,14.341363 12.28717,14.769907 C 13.000615,15.076193 14.057995,15.723083 14.123279,15.893211 C 14.15589,15.978193 13.406535,18.61408 11.73476,24.294915 C 11.549285,24.925179 11.410484,25.0307 11.033469,24.828059 z M 19.8797,17.298905 C 19.179408,17.195313 18.399102,16.989635 17.777153,16.7447 C 16.960515,16.423093 15.575352,15.655366 15.475664,15.469098 C 15.428117,15.380254 15.659573,14.466044 16.225323,12.50808 C 16.675467,10.950209 17.238657,8.9922601 17.476856,8.1570819 C 17.738636,7.2392244 17.969403,6.5769722 18.060259,6.4828331 C 18.231216,6.3057007 18.086881,6.2485544 19.410105,7.0172756 C 20.641508,7.7326536 21.596451,8.0038826 23.073767,8.0578553 C 24.41662,8.106916 25.439922,7.935237 26.966062,7.4048477 C 28.256809,6.9562669 28.339199,6.941092 28.502755,7.1218173 C 28.624042,7.2558384 28.62494,7.3031435 28.514313,7.7315644 C 28.399532,8.1760759 26.303465,15.406312 26.14066,15.919315 C 26.073737,16.130193 25.979033,16.201215 25.501739,16.398462 C 24.139286,16.961515 22.678067,17.267401 21.164589,17.306384 C 20.586389,17.321278 20.008188,17.317912 19.8797,17.298905 z M 13.999141,14.387331 C 11.152336,12.758341 9.1583229,12.59394 5.8807126,13.717991 C 4.9440275,14.039226 4.8772414,14.051573 4.7289813,13.930906 C 4.5724105,13.803472 4.573637,13.795761 4.9662051,12.440047 C 5.1832394,11.690529 5.748729,9.7281521 6.222849,8.0792095 C 6.6980063,6.426661 7.1426468,5.0225959 7.2135884,4.9506993 C 7.4053826,4.756322 8.7728488,4.3080338 10.035024,4.0257646 C 11.099526,3.7877023 11.203343,3.7784257 12.360663,3.8179572 C 13.736635,3.8649577 14.316245,3.996115 15.356078,4.4957755 C 16.052791,4.8305595 17.018006,5.4245263 17.065205,5.5475248 C 17.081872,5.5909583 16.948101,6.1345528 16.767936,6.7555128 C 16.58777,7.3764724 16.025754,9.3212711 15.519007,11.077285 C 14.695911,13.929545 14.483443,14.542594 14.318028,14.542594 C 14.291875,14.542594 14.148377,14.472726 13.999141,14.387331 z"
       style="fill:url(#linearGradient5974);fill-opacity:1;stroke:#4080de;stroke-opacity:1;stroke-width:0.50000000000000000;stroke-miterlimit:4;stroke-dasharray:none" />
  </g>
</svg>
